<svg xmlns="http://www.w3.org/2000/svg" viewBox="0 0 260 100">
  <!-- chaîne : Calibrer -> Tester -> Motif -> G-code -> Vérifier -> Graver -->
  <g fill="none" stroke="#2f3540" stroke-width="1.6">
    <rect x="4"   y="30" width="72" height="20" rx="5"/>
    <rect x="96"  y="30" width="72" height="20" rx="5"/>
    <rect x="188" y="30" width="68" height="20" rx="5"/>
    <rect x="4"   y="70" width="72" height="20" rx="5"/>
    <rect x="96"  y="70" width="72" height="20" rx="5"/>
    <rect x="188" y="70" width="68" height="20" rx="5"/>
  </g>
  <g stroke="#ff8a00" stroke-width="2" fill="none">
    <line x1="76" y1="40" x2="94" y2="40"/><polyline points="90,36 95,40 90,44"/>
    <line x1="168" y1="40" x2="186" y2="40"/><polyline points="182,36 187,40 182,44"/>
    <path d="M222 50 Q222 60 40 60 Q40 64 40 68" />
    <polyline points="36,64 40,69 44,64"/>
    <line x1="76" y1="80" x2="94" y2="80"/><polyline points="90,76 95,80 90,84"/>
    <line x1="168" y1="80" x2="186" y2="80"/><polyline points="182,76 187,80 182,84"/>
  </g>
  <g font-family="sans-serif" font-size="10" fill="#2f3540" text-anchor="middle">
    <text x="40"  y="44">1. Calibrer</text>
    <text x="132" y="44">2. Tester</text>
    <text x="222" y="44">3. Motif</text>
    <text x="40"  y="84">4. G-code</text>
    <text x="132" y="84">5. Cadrage</text>
    <text x="222" y="84">6. Graver</text>
  </g>
  <text x="130" y="16" font-family="sans-serif" font-size="11" fill="#ff8a00" text-anchor="middle">Le flux de travail de l'atelier</text>
</svg>
