<?xml version="1.0" encoding="UTF-8" standalone="no"?>
<!-- Created with Inkscape (http://www.inkscape.org/) -->

<svg
   version="1.1"
   id="svg1"
   width="317.5mm"
   height="211.66667mm"
   viewBox="0 0 1200 800.00002"
   sodipodi:docname="laser-Travail.svg"
   xml:space="preserve"
   inkscape:version="1.4.4 (dcaf3e7d9e, 2026-05-05)"
   inkscape:export-filename="laser.png"
   inkscape:export-xdpi="96"
   inkscape:export-ydpi="96"
   xmlns:inkscape="http://www.inkscape.org/namespaces/inkscape"
   xmlns:sodipodi="http://sodipodi.sourceforge.net/DTD/sodipodi-0.dtd"
   xmlns="http://www.w3.org/2000/svg"
   xmlns:svg="http://www.w3.org/2000/svg"><defs
     id="defs1" /><sodipodi:namedview
     id="namedview1"
     pagecolor="#ffffff"
     bordercolor="#000000"
     borderopacity="0.25"
     inkscape:showpageshadow="2"
     inkscape:pageopacity="0.0"
     inkscape:pagecheckerboard="0"
     inkscape:deskcolor="#d1d1d1"
     inkscape:zoom="1.1495212"
     inkscape:cx="625.91278"
     inkscape:cy="350.58075"
     inkscape:window-width="1920"
     inkscape:window-height="1140"
     inkscape:window-x="0"
     inkscape:window-y="0"
     inkscape:window-maximized="1"
     inkscape:current-layer="svg1"
     inkscape:document-units="mm" /><g
     inkscape:groupmode="layer"
     inkscape:label="Image"
     id="g1"
     transform="translate(-136.53544,-158.38923)"><path
       id="path1"
       style="display:inline;fill:#000000"
       inkscape:label="Laser"
       d="m 356.39482,270.80654 c -1.95379,0.056 -3.92539,0.19543 -5.91406,0.41992 -6.99167,0.78964 -13.95788,2.18382 -20.7539,4.12109 -20.38806,5.81183 -39.26402,16.49459 -52.85743,30.28321 -11.32784,11.48915 -17.26185,25.78476 -17.63867,42.48828 -0.31124,13.80141 3.02414,29.4359 10.20117,47.78711 -9.62142,1.51659 -17.47718,3.09028 -23.63671,7.97851 -1.92678,1.52167 -9.53667,12.58949 -3.08008,20.75196 5.58984,7.06829 17.32062,10.22056 23.86328,10.20117 31.85815,-0.0927 59.99975,-2.28255 86.03711,-6.69531 21.53577,-3.6503 46.96906,-8.78784 72.30273,-19.21094 4.33186,-1.78193 8.84276,-3.74537 13.35156,-5.93945 17.60027,-8.56467 35.18686,-20.66607 42.17188,-39.44336 3.80196,-10.22138 1.45062,-21.4908 -6.13867,-29.41016 -5.75352,-6.00232 -13.74979,-10.52358 -23.125,-13.08008 -8.13883,-2.2177 -17.11472,-2.88661 -25.29102,-1.88476 -8.21055,-16.1429 -19.05246,-29.01858 -31.35937,-37.24219 -11.65371,-7.78765 -24.45626,-11.51725 -38.13282,-11.125 z m 9.04102,13.69531 c 2.15289,0.0968 4.19103,0.73299 5.02148,1.02344 14.98186,5.22952 28.03475,16.29948 35.8086,30.37109 1.53992,2.78705 1.33342,6.00554 0.25976,7.38867 -1.26165,1.62522 -2.43083,2.3684 -3.67773,2.33789 -2.45403,-0.0604 -5.18607,-3.24786 -8.96875,-7.66015 -5.88025,-6.85616 -14.76744,-17.21753 -30.16211,-24.63867 -2.20607,-1.06348 -5.53014,-4.39304 -3.99414,-6.60938 1.29235,-1.86713 3.56,-2.3097 5.71289,-2.21289 z m 61.9707,36.63867 c 21.69878,-0.61106 41.42714,8.385 47.75782,22.66016 6.45818,14.56628 -4.09363,37.71251 -43.39258,51.54297 -28.67621,10.33164 -59.30948,10.39305 -89.32422,8.67578 -27.59315,0.1277 -75.2753,-8.84104 -98.22656,8.32422 -1.25073,1.19623 -2.05538,2.02511 -3.69141,2.00781 2.47434,-4.96275 4.61347,-8.70665 8.125,-10.35742 37.94125,-14.28974 86.27796,-0.23737 139.78711,-4.81055 59.77121,-5.44094 86.8438,-32.13998 83.65625,-49.875 -4.30129,-23.93113 -43.69637,-25.29332 -43.82227,-25.44531 -0.55422,-0.66878 -0.89788,-1.94674 -0.86914,-2.72266 z m 3.58008,14.07422 9.33594,20.45508 c -11.50785,18.34438 -40.33651,34.05219 -63.84961,41.5 -13.12006,0.28804 -27.88981,-0.55513 -42.17383,-1.36914 -20.16023,-1.14985 -41.00862,-2.33755 -58.46875,-0.5 -0.15989,0.016 -0.32181,0.0375 -0.48633,0.0566 -1.18429,0.14049 -2.40709,0.28318 -2.84375,-0.4707 -0.33663,-0.58117 -0.72794,-2.13837 -0.51172,-2.55274 0.0292,-0.0598 0.064,-0.0695 0.11133,-0.0684 l 12.25,-2.05468 c 18.59151,-2.67453 47.6604,-6.49341 77.74805,-12.60157 34.09544,-7.29785 57.98897,-27.3629 68.88867,-42.39453 z m 62.54688,35.05274 c -1.23301,0.0381 -2.64426,0.2512 -4.27539,0.67773 l -6.01758,1.57422 c -26.2229,42.18877 -100.64612,62.47401 -200.33203,68.0625 l -1.17383,131.18164 c -1.72216,192.6862 -0.39332,203.08306 -2.13281,209.73633 -6.10001,23.3316 -17.75179,34.93593 -37.87696,37.7207 -11.3595,1.57184 -11.72461,1.99218 -11.72461,13.5 0,5.17591 0.46581,10.28186 1.03516,11.3457 1.0158,1.89806 3.62628,1.9336 139.3457,1.9336 130.49447,0 138.39201,-0.0989 139.78516,-1.75 1.53204,-1.81572 16.85167,-56.06659 17.58398,-62.26953 0.3176,-2.6902 -0.0985,-3.98655 -1.76953,-5.5 -2.04353,-1.85086 -3.96002,-2.00355 -29.33398,-2.33985 -9.70439,-0.10993 -16.50966,-0.15607 -22.13477,-0.17383 -0.4265,3.93708 -2.25009,7.23566 -4.8164,9.43946 -2.94488,2.52888 -6.70518,3.70118 -10.41797,3.70117 -3.71278,0 -7.47115,-1.17229 -10.41602,-3.70117 -2.56877,-2.20591 -4.38771,-5.51228 -4.81055,-9.45508 -6.473,-0.0243 -14.5791,-0.0763 -25.55078,-0.17969 -25.44688,-0.23982 -26.08193,-0.32234 -29.8457,-2.66211 -2.11509,-1.31486 -5.15692,-4.20141 -6.75977,-6.41406 -6.2337,-8.60537 -6.42281,1.55295 -5.89062,-176.62695 0.27554,-92.25259 0.0289,-90.40958 1.99023,-93.51953 3.56791,-5.65753 7.1614,-6.9921 18.83204,-6.9961 10.08282,-0.004 10.39602,0.063 13.25,2.82227 2.61743,2.53052 2.92382,3.46965 2.92382,8.9707 0,7.26935 1.77199,10.43945 5.83399,10.43945 1.49643,0 3.72099,0.67811 4.94336,1.50586 1.858,1.25818 2.22265,2.41471 2.22265,7.05664 0,3.05394 0.53922,6.07481 1.19922,6.71289 1.71342,1.65653 58.88619,1.65653 60.59961,0 0.68118,-0.65856 1.20117,-3.81249 1.20117,-7.29492 0,-5.2244 0.36477,-6.48691 2.45508,-8.50781 1.35,-1.30518 3.35205,-2.37305 4.45117,-2.37305 3.27228,0 6.79752,-1.98771 7.98243,-4.50195 0.7394,-1.56894 1.11132,-12.63464 1.11132,-33.12891 0,-33.53896 0.20474,-32.37408 -5.88086,-33.55078 -5.35935,-1.03629 -6.11914,-3.15657 -6.11914,-17.08593 v -12.42774 l 2.88868,-2.58398 c 1.58862,-1.42138 4.28861,-3.73178 6,-5.13282 3.02486,-2.47636 3.11142,-2.77268 3.10742,-10.63476 -0.003,-6.30188 -0.43344,-8.76572 -1.94727,-11.16602 -2.16541,-3.43343 -4.17258,-6.56935 -9.51562,-6.40429 z m 679.4238,19.17773 -44.9023,0.008 c -9.5357,0.002 -18.0926,4.06713 -24.5957,10.34375 -0.5062,-1.87218 -1.3772,-3.68141 -2.6778,-5.23047 -2.6338,-3.13713 -6.814,-4.87756 -10.666,-4.87695 l -15.1992,0.002 c -7.704,0.001 -13.8864,5.01894 -15.2891,12.74024 v 0.0137 l -2.373,13.27148 -11.0488,-19.63085 -0.209,-0.31641 c -2.5932,-3.88828 -7.4023,-6.07293 -11.5723,-6.07227 l -19.373,0.004 c -7.5956,10e-4 -13.9616,4.97968 -15.19143,12.84375 l -0.0254,0.13477 -0.38672,2.13476 c -0.23204,-0.0463 -0.46628,-0.0871 -0.70117,-0.11914 h -0.008 l -0.50781,-0.10156 h -0.96875 c -0.008,-2e-5 -0.0159,-3.4e-4 -0.0234,0 l -56.92968,0.008 c -3.19512,5e-4 -5.96667,1.03973 -8.33985,2.60742 -2.11186,-1.43271 -4.42236,-2.5043 -6.92382,-2.5039 l -12.06055,0.002 c -7.29958,10e-4 -13.51964,5.04232 -14.80078,12.41601 l -0.61719,3.41211 -5.39844,-9.60742 -0.28125,-0.40234 c -2.64689,-3.77993 -7.27756,-5.81314 -11.29297,-5.8125 l -15.57226,0.002 c -4.05526,6.5e-4 -7.59901,1.52943 -10.28906,4.06836 -2.53993,-2.48488 -6.00003,-4.16657 -9.50782,-4.16601 l -12.27734,0.002 c -6.18193,9.9e-4 -11.06261,3.38372 -13.44141,8.59375 -4.56014,-5.30038 -11.46468,-8.47476 -18.8457,-8.58594 l -0.0254,-0.002 h -0.34766 -0.0352 l -46.30274,0.006 c -2.82703,4.5e-4 -5.37914,0.62629 -7.54687,1.79492 -1.02804,-2.53225 -2.42508,-4.89124 -4.16797,-6.98047 -5.15642,-6.18106 -13.19335,-9.81388 -21.82227,-9.8125 l -57.89453,0.01 c -8.00708,10e-4 -13.7474,5.22861 -15.16015,12.65234 l -0.008,0.043 -13.10547,72.33203 0.0215,-0.0859 c -0.75418,3.96261 0.36442,8.4693 3.0664,11.56446 2.7021,3.09514 6.73586,4.71155 10.5879,4.71093 l 15.3125,-0.002 c 7.83331,-10e-4 13.67914,-4.75718 15.16015,-12.53906 l 0.008,-0.0566 1.38086,-7.73633 29.62696,-0.0977 c 7.90976,-0.001 15.36202,-2.62336 21.39843,-7.10742 l -2.0625,11.45117 -0.004,0.0273 c -1.34189,7.72309 5.5856,16.04812 13.46484,16.04687 l 12.27149,-0.002 c 7.29954,-10e-4 13.43413,-4.79864 14.78515,-12.23633 l 0.008,-0.0156 0.72657,-4.04296 h 1.29492 l 4.40625,8.80664 0.0547,0.10156 c 1.42556,2.69172 4.94701,5.62978 7.85937,6.54687 2.9124,0.91709 4.91162,0.83432 6.95899,0.83399 5.81596,-9.3e-4 7.94192,-0.20992 14.33398,-0.21094 2.6243,-4.2e-4 5.37392,-1.18782 7.84375,-3.04492 2.57113,1.99345 5.60961,3.25045 8.45703,3.25 l 12.26953,-0.002 c 4.17119,-6.6e-4 7.83456,-1.70307 10.57032,-4.4336 2.53351,2.59041 5.81822,4.4322 9.33398,4.43164 l 12.16992,-0.002 c 7.4204,-10e-4 13.18869,-4.95361 14.7207,-12.00586 l 0.0371,-0.17383 1.11524,-6.17383 6.91601,12.15235 0.26758,0.38281 c 2.46727,3.52357 6.97497,5.91281 11.39258,5.91211 l 13.4043,-0.002 c 7.58942,-0.001 13.44553,-4.95062 14.78711,-12.33594 v -0.008 l 6.60742,-36.65235 c 0.8502,0.16039 1.71019,0.52552 2.52539,0.52539 h 5.98047 l -5.81641,32.26172 0.008,-0.0156 c -0.60668,3.33847 0.003,7.63178 2.85157,11.11133 2.87033,3.57275 7.23184,5.00834 10.59375,5.00781 l 12.27929,-0.002 c 7.42044,-0.001 13.09237,-4.72822 14.70118,-11.8125 l 0.0488,-0.22265 6.5293,-36.33594 h 8.11523 l -5.82421,32.08789 c -0.75407,3.96258 0.37204,8.46929 3.07421,11.56445 2.7021,3.09515 6.72809,4.71351 10.58016,4.7129 l 15.1992,-0.006 c 7.704,-10e-4 13.7364,-5.05617 15.1601,-12.53711 l 0.01,-0.043 3.0489,-16.71094 13.2011,23.26367 0.3829,0.50977 c 2.6967,3.59442 7.0779,5.51237 11.248,5.51172 l 16.8242,-0.004 c 7.427,-10e-4 13.1927,-4.76194 14.8809,-11.80273 0.437,0.6315 0.5356,1.46091 1.0293,2.05078 5.1674,6.17541 13.2023,9.74748 21.7988,9.74609 l 45.0117,-0.006 c 7.5766,-10e-4 13.8552,-4.68642 15.168,-12.59961 v 0.0391 l 0.022,-0.11523 c 9e-4,-0.0116 0,-0.0193 0,-0.0273 v -0.008 l 2.3359,-12.36328 0.029,-0.22265 c 1.0764,-7.54084 -5.7254,-15.93876 -13.7324,-15.9375 l -29.8301,0.006 3.4238,-19.09961 33.4844,-0.006 c 7.704,-0.001 13.7945,-4.75706 15.2754,-12.53907 l 0.012,-0.0859 2.0723,-11.98242 c 0.731,-3.84079 -0.1955,-8.13268 -2.7734,-11.32618 -2.5772,-3.19246 -6.7594,-5.06388 -10.7618,-5.06445 z m 0,9.99805 c 2.5523,-3.7e-4 4.1766,2.08885 3.7129,4.52539 l -2.086,12.0664 c -0.4636,2.43656 -2.9006,4.40781 -5.4531,4.40821 l -39.0996,0.008 c -1.5083,2.5e-4 -2.9001,1.27681 -3.248,2.78516 l -6.0274,33.64648 c -0.3478,1.50831 0.6956,2.66861 2.2051,2.66797 l 39.0996,-0.006 c 2.5523,-3.8e-4 4.1779,2.08689 3.8301,4.52344 l -2.3203,12.29883 c -0.3477,2.43655 -2.7835,4.40972 -5.336,4.41015 l -45.0156,0.008 c -11.9504,0.002 -19.8412,-9.39463 -17.6387,-21.11328 l 7.0703,-39.10156 c 2.2026,-11.60263 13.572,-21.11726 25.4063,-21.11914 z m -452.54104,0.1875 c 11.95033,-0.002 19.8424,9.51184 17.75586,21.23047 l -3.36328,18.44726 c -2.08653,11.71863 -13.45396,21.1192 -25.4043,21.1211 l -37.01172,0.12109 c -0.58012,9e-5 -1.04431,0.34762 -1.16015,0.92773 l -2.66602,14.96875 c -0.46371,2.43656 -2.89945,4.40977 -5.33593,4.41016 l -15.31641,0.002 c -2.5527,4.6e-4 -4.2918,-1.97165 -3.82813,-4.4082 l 13.09766,-72.28516 c 0.46368,-2.43655 2.78537,-4.52498 5.33789,-4.52539 z m 369.70114,0.0586 c 2.5526,-4.3e-4 4.1759,1.97089 3.8282,4.52344 l -13.0977,72.16797 c -0.4637,2.43653 -2.7854,4.40973 -5.3379,4.41015 l -16.8223,0.002 c -1.3922,7e-5 -2.5517,-0.57973 -3.248,-1.50782 l -24.9531,-43.96875 c -0.5802,-0.81207 -1.9722,-0.57856 -2.0879,0.34961 l -7.4199,40.72461 c -0.4638,2.43655 -2.7835,4.40977 -5.336,4.41016 l -15.1992,0.002 c -2.5527,4.4e-4 -4.29184,-1.97164 -3.82812,-4.4082 l 13.09762,-72.16797 c 0.3477,-2.55255 2.7854,-4.52498 5.3379,-4.52539 l 19.375,-0.004 c 1.3923,-2.2e-4 2.5518,0.5809 3.2481,1.625 l 22.9804,40.83594 c 0.5802,0.81208 1.8559,0.57863 2.0879,-0.34961 l 6.7227,-37.5918 c 0.4637,-2.55257 2.9006,-4.52498 5.4531,-4.52539 z m -92.87887,14.9043 c 0.14503,1.1e-4 0.28874,0.007 0.42773,0.0215 l -3.23437,17.81641 c -0.0602,0.002 -0.1213,0.004 -0.18164,0.004 l -17.94532,0.002 c -0.10285,6e-5 -0.20448,0.10375 -0.20507,0.20703 l -7.9336,44.14062 c -0.51528,2.26898 -2.68231,4.02309 -4.95117,4.02344 l -12.27148,0.002 c -1.23756,2.1e-4 -2.26974,-0.41137 -2.88868,-1.23632 -0.72185,-0.82499 -0.92898,-1.95923 -0.72265,-3.09375 l 7.93359,-44.03907 -17.94336,0.002 c -1.13442,1.9e-4 -2.1666,-0.4114 -2.88867,-1.23633 -0.72189,-0.82498 -0.92902,-1.95922 -0.72266,-3.09375 l 1.64844,-9.38477 c 0.41215,-2.26895 2.57918,-4.12658 4.95117,-4.12695 z m -152.01758,0.0234 c 2.47602,-6.2e-4 4.0215,2.0615 3.60937,4.43359 l -10.40625,57.75586 c -0.41218,2.26896 -2.57722,4.02306 -4.94921,4.02344 l -12.27344,0.002 c -1.13446,2e-4 -2.16465,-0.41335 -2.88672,-1.23828 -0.61869,-0.825 -0.92898,-1.95923 -0.72266,-3.09375 l 10.40625,-57.75391 c 0.41215,-2.26895 2.57723,-4.12658 4.94922,-4.12695 z m -44.96484,0.008 c 10.00374,-0.002 16.60518,7.93856 14.85351,17.73633 l -2.67969,14.74804 c -1.13337,6.39433 -5.77396,12.17069 -12.06445,15.26563 l -0.20508,0.20508 7.5293,13.19921 c 0.6189,1.03124 0.62061,2.26937 0.002,3.30079 -0.51548,1.0314 -1.65069,1.54667 -2.78515,1.54687 -6.60038,0.001 -8.76494,0.2081 -14.33399,0.20899 -3.50649,5.5e-4 -5.05396,-0.30746 -5.98242,-2.06055 l -6.80859,-13.61328 c -0.20627,-0.41252 -0.6191,-0.61923 -1.13477,-0.61914 l -14.85156,0.004 c -0.10286,7e-5 -0.20608,0.10171 -0.20703,0.20508 l -2.16211,12.06641 c -0.41218,2.26896 -2.57915,4.02306 -4.95117,4.02343 l -12.27149,0.002 c -2.37199,3.7e-4 -4.02346,-1.95799 -3.61133,-4.33008 l 10.40821,-57.75586 c 0.41218,-2.26895 2.68032,-4.12659 4.94922,-4.12695 z m 124.78906,0.082 c 2.4753,-4.4e-4 4.12509,1.95993 3.71289,4.33203 l -10.4082,57.75391 c -0.41215,2.26895 -2.57723,4.12658 -4.94922,4.12695 l -13.40625,0.002 c -1.3407,1.9e-4 -2.4752,-0.61919 -3.19727,-1.65039 L 876.78345,444.1075 c -0.10301,-0.10315 -0.20538,-0.10367 -0.30859,-0.10352 -0.10322,1.6e-4 -0.10257,0.10366 -0.10352,0.20704 l -5.87305,32.48828 c -0.5153,2.3721 -2.68224,4.12463 -4.95117,4.125 l -12.16797,0.002 c -2.47512,3.8e-4 -4.12704,-1.95798 -3.71484,-4.33008 l 10.4082,-57.65234 c 0.41213,-2.37209 2.68033,-4.1266 4.94922,-4.12696 l 15.57227,-0.002 c 1.23752,-2e-4 2.37359,0.51568 3.0957,1.54688 l 18.36133,32.68945 c 0.10301,0.10315 0.31054,0.10352 0.31054,0.10352 0.10286,-7e-5 0.20414,-0.10366 0.20508,-0.20704 l 5.46094,-30.01171 c 0.41213,-2.37209 2.57914,-4.12658 4.95117,-4.12696 z m -215.41602,5.23047 -29.93359,0.004 c -0.46412,7e-5 -1.04495,0.46557 -1.04492,0.92969 l -3.36133,18.44727 c -0.11576,0.46406 0.23181,0.81273 0.8125,0.8125 l 29.93359,-0.006 c 2.20441,-3.5e-4 4.40997,-1.74083 4.75782,-3.94531 l 2.20117,-12.18165 c 0.46373,-2.2045 -1.04461,-4.06095 -3.36524,-4.06054 z m 82.06836,12.2207 -24.02929,0.004 c -0.10322,1.5e-4 -0.20413,0.10366 -0.20508,0.20703 l -2.67969,14.64453 23.92773,-0.004 c 1.547,-2.5e-4 2.99152,-1.23775 3.30079,-2.68164 l 1.75195,-9.69531 c 0.10129,-0.72151 -0.10686,-1.34133 -0.41602,-1.75391 -0.41251,-0.51561 -1.03159,-0.72081 -1.65039,-0.7207 z m -354.60742,97.14453 c -5.57503,0.10451 -9.36901,0.38402 -9.57617,0.94141 -0.82865,2.22957 14.66522,54.31241 16.10547,54.74609 1.44025,0.43368 31.13672,0 31.13672,0 l 11.81054,-54.74609 c 0,0 -32.75148,-1.25494 -49.47656,-0.94141 z m 448.78516,125.57617 -55.1875,0.36329 c -48.62982,0.32141 -55.89228,0.57161 -61.10743,2.09375 -17.4602,5.09613 -29.04456,16.71767 -32.55468,32.66406 -0.79485,3.61118 -1.0931,12.19671 -0.86914,25 l 0.34179,19.5 3.19336,6.74023 c 4.01721,8.4804 10.92971,15.47465 19.33985,19.56836 12.34452,6.00881 15.26302,6.39685 52.14062,6.93164 37.84742,0.54886 38.42481,0.65993 41.49414,8.00586 2.33557,5.58979 1.50596,22.1965 -1.29687,25.97656 -3.74783,5.05457 -4.9745,5.16001 -60.55078,5.22071 -45.59779,0.0498 -51.86348,0.24237 -53.25,1.6289 -1.29946,1.29946 -1.57032,4.37892 -1.57032,17.79883 0,11.28889 0.36448,16.59495 1.19922,17.42969 1.94502,1.94502 116.21275,1.66187 124.57031,-0.30859 15.68945,-3.69911 26.49236,-13.07565 32.25196,-27.99219 2.03453,-5.26916 2.37124,-8.20813 2.75586,-24.13477 0.45703,-18.9248 -0.0938,-23.79137 -3.81836,-33.74609 -2.73305,-7.30471 -10.96714,-16.28445 -18.66797,-20.36133 -11.92426,-6.3128 -13.5657,-6.54337 -51.29102,-7.17773 -32.39936,-0.5448 -34.71311,-0.70526 -38,-2.63086 -5.13456,-3.00806 -6.46786,-6.48158 -6.38086,-16.6211 0.084,-9.79442 1.38982,-13.91992 5.23243,-16.52929 2.43727,-1.65506 6.65869,-1.83877 52.84961,-2.29883 39.26773,-0.3911 50.48402,-0.78222 51.5,-1.79688 0.91692,-0.91574 1.39257,-5.67394 1.61914,-16.17968 0.30366,-14.08024 0.20658,-14.99655 -1.81055,-17.01368 z m -258.31836,0.13672 c -15.98238,0.008 -29.61473,0.36876 -30.29492,0.80078 -0.68019,0.43202 -5.10807,11.56232 -9.8379,24.73438 -26.79774,74.62865 -32.73743,91.21285 -44.5,124.21875 -7.10898,19.94793 -12.92578,37.16043 -12.92578,38.25 0,1.91299 0.73486,1.98047 21.39844,1.98047 h 21.39844 l 2.61523,-7.25 c 1.43889,-3.9875 4.11275,-11.75 5.94141,-17.25 l 3.32617,-10 42.05664,-0.25977 42.05664,-0.26172 5.85352,17.26172 5.85351,17.25977 21.75,0.26953 c 21.17441,0.26237 21.75,0.21694 21.75,-1.73047 0,-1.1002 -8.95802,-27.54649 -19.90625,-58.76953 -10.94824,-31.22303 -25.41317,-72.51953 -32.14453,-91.76953 -6.73137,-19.25 -12.93463,-35.5625 -13.78515,-36.25 -1.15878,-0.93667 -8.83056,-1.24588 -30.60547,-1.23438 z m 426.44141,0.96289 c -2.3759,-1.5019 -135.29262,-1.28746 -136.80079,0.22071 -0.91615,0.91615 -1.19922,23.23028 -1.19922,94.33398 0,51.22334 0.29935,93.43412 0.66602,93.80078 0.36666,0.36667 31.55244,0.66602 69.30078,0.66602 52.04811,0 68.92201,-0.2892 69.83201,-1.19922 0.8369,-0.83695 1.2012,-6.223 1.2012,-17.80078 0,-11.57778 -0.3643,-16.96383 -1.2012,-17.80078 -0.8999,-0.89986 -13.1556,-1.19922 -49,-1.19922 h -47.79881 v -20.5 -20.5 h 38.94141 c 26.4861,0 39.1516,-0.34146 39.5996,-1.06641 0.3623,-0.58622 0.8961,-7.54994 1.1875,-15.47656 0.4528,-12.31852 0.2895,-14.77982 -1.123,-16.93555 l -1.6524,-2.52148 h -38.47654 -38.47657 v -19 -19 h 46.87691 c 42.3856,0 47.009,-0.15904 48.25,-1.6543 2.0878,-2.51571 1.9752,-33.0384 -0.1269,-34.36719 z m 23.4355,0.0762 c -1.2282,1.0193 -1.4355,14.63598 -1.4355,94.40039 0,51.26599 0.2993,93.51224 0.666,93.8789 1.2638,1.26382 39.8358,0.76382 41.1328,-0.5332 0.883,-0.88302 1.2012,-9.6 1.2012,-33 V 778.9999 h 16.3769 16.375 l 12.3438,20.25 c 6.7888,11.1375 15.7765,25.875 19.9727,32.75 l 7.6289,12.5 24.1757,0.26758 c 20.0179,0.22178 24.2685,0.0265 24.7149,-1.13672 0.3062,-0.79794 -8.8404,-15.50173 -21.1719,-34.03711 -11.9407,-17.94808 -21.5307,-32.78799 -21.3125,-32.97656 0.2182,-0.18857 3.5309,-1.82297 7.3613,-3.63282 13.4181,-6.34006 21.4949,-17.94334 23.6524,-33.97461 1.7665,-13.12588 0.6418,-43.89386 -1.8926,-51.75781 -5.0216,-15.58158 -16.6408,-26.0186 -33.7246,-30.29492 -7.1154,-1.78108 -114.0044,-2.61206 -116.0645,-0.90234 z m 41.5645,35.83398 29.25,0.30664 c 32.4586,0.33907 32.3741,0.32268 35.832,7.01563 1.6357,3.16606 1.916,5.87911 1.916,18.5 0,16.86146 -1.0066,20.274 -6.998,23.75585 -3.2559,1.89219 -5.47,2.05415 -31.75,2.33985 l -28.25,0.30859 V 718.002 Z m -492.50977,0.35352 c 0.28876,-0.0121 0.51996,0.42354 0.89648,0.83398 1.1612,1.26581 29.66086,80.31291 29.62696,82.17383 -0.008,0.4125 -13.51368,0.75 -30.01368,0.75 -23.43435,0 -30,-0.27518 -30,-1.25781 0,-0.69187 2.5092,-8.22937 5.57618,-16.75 3.06697,-8.52063 9.10952,-25.61719 13.42773,-37.99219 8.12937,-23.29692 9.58278,-27.71982 10.48633,-27.75781 z"
       sodipodi:nodetypes="scscsccccccscccccssccsccscsccccccccsccccccccsccccscsccccssssssssccssscssssscssssssssssssssccscsscccscscccccccccccccccccsccccccccsscccccccsccccccscscccccccscccccccssscsscsccccccscccccccccsccccccsccccccccccccscccsccccccccccsscccccccccsccccccccscccccccccccsccccccccccccccccccccccccccccssccccscccccccsscccsccccccccssccccccssccccsccssccsccsscccccccccssccccccccscccccsccccsssccsccsscccsssssssssssssssssssscccsssssccccccccssssscssssssssscccsssccccccsssssssscccccccsssssssssccsssccccsscsssss" /><path
       id="path1-7"
       style="display:inline;fill:#ff6600;stroke-width:1.12853"
       inkscape:label="Atelier"
       d="m 430.98662,335.21474 c -10.8997,15.03163 -34.79323,35.09668 -68.88867,42.39453 -30.08765,6.10816 -59.15654,9.92704 -77.74805,12.60157 l -12.25,2.05468 c -0.0472,-10e-4 -0.0822,0.009 -0.11133,0.0684 -0.21622,0.41438 0.17509,1.97157 0.51172,2.55274 0.43667,0.75387 1.65946,0.61118 2.84375,0.4707 0.16452,-0.0192 0.32645,-0.0405 0.48633,-0.0566 17.46013,-1.83755 38.30852,-0.64985 58.46875,0.5 11.30425,0.6442 22.91332,1.30652 33.76758,1.41211 0.47117,0.005 0.93996,0.007 1.4082,0.01 2.37512,0.0124 4.71182,-0.003 6.99805,-0.0527 5.6534,-1.79072 11.62478,-4.10977 17.57812,-6.77734 1.9678,-0.92057 3.85241,-2.01101 6.55274,-3.3711 16.43554,-8.22997 32.01569,-19.0723 39.71875,-31.35156 z m 741.97268,64.22852 -44.9004,0.008 c -11.8343,0.002 -23.2037,9.51651 -25.4063,21.11914 l -7.0703,39.10156 c -2.2025,11.71865 5.6883,21.11517 17.6387,21.11328 l 45.0156,-0.008 c 2.5525,-4.3e-4 4.9883,-1.9736 5.336,-4.41015 l 2.3203,-12.29883 c 0.3478,-2.43655 -1.2778,-4.52382 -3.8301,-4.52344 l -39.0996,0.006 c -1.5095,6.4e-4 -2.5529,-1.15966 -2.2051,-2.66797 l 6.0274,-33.64648 c 0.3479,-1.50835 1.7397,-2.78491 3.248,-2.78516 l 39.0996,-0.008 c 2.5525,-4e-4 4.9895,-1.97165 5.4531,-4.40821 l 2.086,-12.0664 c 0.4637,-2.43654 -1.1606,-4.52576 -3.7129,-4.52539 z m -452.54104,0.1875 -57.89453,0.01 c -2.55252,4.1e-4 -4.87421,2.08884 -5.33789,4.52539 l -13.09766,72.28516 c -0.46367,2.43655 1.27543,4.40866 3.82813,4.4082 l 15.31641,-0.002 c 2.43648,-3.9e-4 4.87222,-1.9736 5.33593,-4.41016 l 2.66602,-14.96875 c 0.11584,-0.58011 0.58003,-0.92764 1.16015,-0.92773 l 37.01172,-0.12109 c 11.95034,-0.002 23.31777,-9.40247 25.4043,-21.1211 l 3.36328,-18.44726 c 2.08654,-11.71863 -5.80553,-21.23237 -17.75586,-21.23047 z m 369.70114,0.0586 -15.1992,0.002 c -2.5525,4.1e-4 -4.9894,1.97282 -5.4531,4.52539 l -6.7227,37.5918 c -0.232,0.92824 -1.5077,1.16169 -2.0879,0.34961 l -22.9804,-40.83594 c -0.6963,-1.0441 -1.8558,-1.62522 -3.2481,-1.625 l -19.375,0.004 c -2.5525,4.1e-4 -4.9902,1.97284 -5.3379,4.52539 l -13.09762,72.16797 c -0.46372,2.43656 1.27542,4.40864 3.82812,4.4082 l 15.1992,-0.002 c 2.5525,-3.9e-4 4.8722,-1.97361 5.336,-4.41016 l 7.4199,-40.72461 c 0.1157,-0.92817 1.5077,-1.16168 2.0879,-0.34961 l 24.9531,43.96875 c 0.6963,0.92809 1.8558,1.50789 3.248,1.50782 l 16.8223,-0.002 c 2.5525,-4.2e-4 4.8742,-1.97362 5.3379,-4.41015 l 13.0977,-72.16797 c 0.3477,-2.55255 -1.2756,-4.52387 -3.8282,-4.52344 z m -92.88083,14.9043 -56.92773,0.008 c -2.37199,3.7e-4 -4.53902,1.858 -4.95117,4.12695 l -1.64844,9.38477 c -0.20633,1.13452 7.6e-4,2.26877 0.72266,3.09375 0.72207,0.82493 1.75424,1.23652 2.88867,1.23633 l 17.94336,-0.002 -7.9336,44.03907 c -0.20632,1.13452 8e-4,2.26876 0.72266,3.09375 0.61894,0.82495 1.65111,1.23653 2.88867,1.23632 l 12.27149,-0.002 c 2.26886,-3.5e-4 4.43589,-1.75446 4.95117,-4.02344 l 7.93359,-44.14062 c 9.5e-4,-0.10337 0.10187,-0.20688 0.20508,-0.20703 l 17.94531,-0.002 c 0.0611,4e-5 0.12268,-0.002 0.1836,-0.004 l 3.23437,-17.81641 c -0.13987,-0.0145 -0.28397,-0.0215 -0.42969,-0.0215 z m -152.01562,0.0234 -12.27344,0.002 c -2.37199,3.7e-4 -4.53707,1.858 -4.94922,4.12695 l -10.40625,57.75391 c -0.20632,1.13452 0.10397,2.26875 0.72266,3.09375 0.72207,0.82493 1.75226,1.23848 2.88672,1.23828 l 12.27344,-0.002 c 2.37199,-3.8e-4 4.53703,-1.75448 4.94921,-4.02344 l 10.40625,-57.75586 c 0.41213,-2.37209 -1.13335,-4.43421 -3.60937,-4.43359 z m -44.96484,0.008 -46.30664,0.006 c -2.2689,3.6e-4 -4.53704,1.858 -4.94922,4.12695 l -10.40821,57.75586 c -0.41213,2.37209 1.23934,4.33045 3.61133,4.33008 l 12.27149,-0.002 c 2.37202,-3.7e-4 4.53899,-1.75447 4.95117,-4.02343 l 2.16211,-12.06641 c 9.5e-4,-0.10337 0.10382,-0.20493 0.20703,-0.20508 l 14.85156,-0.004 c 0.51567,-9e-5 0.9285,0.20662 1.13477,0.61914 l 6.80859,13.61328 c 0.92846,1.75309 2.47593,2.0611 5.98242,2.06055 5.56905,-8.9e-4 7.73361,-0.20794 14.33399,-0.20899 1.13446,-2e-4 2.26967,-0.51547 2.78515,-1.54687 0.61866,-1.03142 0.61695,-2.26955 -0.002,-3.30079 l -7.5293,-13.19921 0.20508,-0.20508 c 6.29049,-3.09494 10.93108,-8.8713 12.06445,-15.26563 l 2.67969,-14.74804 c 1.75167,-9.79777 -4.84977,-17.73792 -14.85351,-17.73633 z m 124.78906,0.082 -12.06641,0.002 c -2.37203,3.8e-4 -4.53904,1.75487 -4.95117,4.12696 l -5.46094,30.01171 c -9.4e-4,0.10338 -0.10186,0.20688 -0.20508,0.20704 0,0 -0.20753,-3.7e-4 -0.31054,-0.10352 L 883.6917,416.26162 c -0.72211,-1.0312 -1.85818,-1.54708 -3.0957,-1.54688 l -15.57227,0.002 c -2.26889,3.6e-4 -4.53709,1.75487 -4.94922,4.12696 l -10.4082,57.65234 c -0.4122,2.3721 1.23972,4.33046 3.71484,4.33008 l 12.16797,-0.002 c 2.26893,-3.7e-4 4.43587,-1.7529 4.95117,-4.125 l 5.87305,-32.48828 c 9.5e-4,-0.10338 3e-4,-0.20688 0.10352,-0.20704 0.10285,-6e-5 0.20558,3.7e-4 0.30859,0.10352 l 20.01367,35.16406 c 0.72207,1.0312 1.85657,1.65058 3.19727,1.65039 l 13.40625,-0.002 c 2.37199,-3.7e-4 4.53707,-1.858 4.94922,-4.12695 l 10.4082,-57.75391 c 0.4122,-2.3721 -1.23759,-4.33247 -3.71289,-4.33203 z m -215.41602,5.23047 c 2.32063,-4.1e-4 3.82897,1.85604 3.36524,4.06054 l -2.20117,12.18165 c -0.34785,2.20448 -2.55341,3.94496 -4.75782,3.94531 l -29.93359,0.006 c -0.58069,2.3e-4 -0.92826,-0.34844 -0.8125,-0.8125 l 3.36133,-18.44727 c -3e-5,-0.46412 0.5808,-0.92962 1.04492,-0.92969 z m 82.06641,12.2207 c 0.6188,-1.1e-4 1.23788,0.20509 1.65039,0.7207 0.3113,0.41205 0.51946,1.03187 0.41602,1.75391 l -1.75196,9.69531 c -0.30927,1.44389 -1.75378,2.68139 -3.30078,2.68164 l -23.92578,0.004 2.67773,-14.64453 c 9.5e-4,-0.10337 0.10187,-0.20688 0.20508,-0.20703 z m 351.64844,85.44922 v 34.56445 34.56641 l 7.0527,-0.33594 7.0547,-0.33594 0.3203,-12.13281 0.3203,-12.13086 3.629,0.0156 c 6.7419,0.0286 8.1261,1.09802 14.2929,11.05468 8.7591,14.14214 8.293,13.75782 16.5957,13.75782 4.1565,0 7.1621,-0.48795 7.1621,-1.16211 0,-0.63877 -3.3265,-6.2861 -7.3906,-12.54883 -4.0641,-6.26275 -7.2374,-11.47366 -7.0527,-11.58008 9.0238,-5.19726 11.5363,-10.7437 10.8672,-23.99414 -0.4628,-9.16459 -2.4712,-12.91404 -8.9571,-16.73437 -3.3647,-1.98182 -6.2747,-2.30288 -23.8633,-2.63086 z m -250.53516,0.0742 v 34.49805 34.49804 l 22.85352,-0.30664 22.85351,-0.30469 0.33985,-5.92578 0.34179,-5.92383 -5.98437,-0.20117 c -3.29108,-0.1099 -10.41782,-0.0502 -15.83789,0.13086 l -9.85547,0.32813 -0.30078,-28.06055 -0.30274,-28.06055 -7.05273,-0.33593 z m 91.47656,0.10742 -0.31445,33.95117 c -0.17301,18.67325 -0.10241,34.16199 0.15625,34.41992 0.25855,0.25792 3.43194,0.47071 7.05273,0.47071 h 6.58399 v -34.42188 -34.41992 h -6.74024 z m -360.50586,0.0879 c -4.16907,0.33474 -4.77723,3.13926 -10.16406,17.60742 -2.73177,7.33709 -8.06632,21.44451 -11.85351,31.34961 -3.78721,9.90511 -6.88477,18.43325 -6.88477,18.95313 0,0.51997 3.38713,0.79681 7.52734,0.61328 l 7.52735,-0.33399 2.16992,-6.52148 2.16992,-6.52148 14.72656,0.31445 14.72657,0.31445 2.31445,6.48828 2.31641,6.49024 h 7.11523 c 3.91417,0 7.11719,-0.44639 7.11719,-0.99219 0,-0.54579 -5.54815,-15.90846 -12.33008,-34.13867 l -12.33203,-33.14649 -8.48242,-0.32812 c -2.48965,-0.0964 -4.27438,-0.26002 -5.66407,-0.14844 z m 69.84375,0.47656 v 6.20703 6.20704 h 9.5918 9.59375 l 0.30078,27.98632 0.30274,27.98829 6.46875,-0.3379 6.46875,-0.33789 0.56445,-27.65039 0.56445,-27.64843 9.59375,-0.1875 9.5918,-0.18946 v -6.01758 -6.01953 h -26.52149 z m 101.56836,0 -0.30078,32.71485 c -0.16493,17.99257 -0.0526,33.35329 0.24805,34.13672 0.41617,1.08452 6.2238,1.42578 24.33789,1.42578 h 23.78906 l -0.33789,-6.3086 -0.33789,-6.30859 -16.63867,-0.18164 -16.63867,-0.17969 -0.008,-7.61719 -0.008,-7.61914 5.36133,-0.125 c 2.9483,-0.0696 8.91491,-0.1977 13.25977,-0.2832 l 7.90039,-0.15625 v -6.20508 -6.20703 l -13.25977,-0.31836 -13.26172,-0.31836 v -6.63867 -6.63867 c 13.21218,-0.85264 17.84121,-0.276 32.98633,-0.94336 l 0.64258,-6.43945 -0.33594,-5.78907 H 818.8925 Z m 252.79105,0 -0.2989,32.71485 c -0.165,17.99257 -0.051,33.36434 0.2539,34.16015 0.4328,1.12758 5.855,1.37999 24.5645,1.14258 l 24.0078,-0.30469 0.3418,-5.92578 0.3399,-5.92383 -4.8555,-0.18164 c -2.6704,-0.0999 -10.44,-0.26217 -17.2676,-0.35937 l -12.4141,-0.17578 -0.3339,-7.54102 -0.334,-7.54297 11.6191,-0.0156 c 16.6295,-0.0221 16.8789,-0.13097 16.4688,-7.1836 l -0.336,-5.77734 -13.8242,-0.31836 -13.8242,-0.3164 v -6.56641 -6.56641 l 10.543,-0.6914 c 5.7985,-0.38089 12.3724,-0.39622 14.6093,-0.0332 2.237,0.36298 5.3906,0.32777 7.0078,-0.0781 2.7583,-0.69231 2.9185,-1.10251 2.5997,-6.62695 l -0.3399,-5.88868 h -24.2637 z m 110.0332,11.84961 8.7461,0.0176 c 4.8104,0.009 10.0147,0.65519 11.5664,1.4375 2.4788,1.24969 2.8621,2.25949 3.1543,8.31641 0.2497,5.17442 -0.1214,7.3498 -1.4903,8.71875 -1.4072,1.40709 -4.1267,1.82422 -11.9004,1.82422 h -10.0761 v -10.15821 z m -529.63284,3.27735 c 0.60648,-0.0724 2.91776,5.11861 5.52539,12.48242 2.73974,7.73694 4.98047,14.21176 4.98047,14.38867 0,0.17691 -4.56246,0.32227 -10.13867,0.32227 h -10.13868 l 4.50586,-12.69532 c 2.4785,-6.98281 4.80026,-13.45763 5.15821,-14.38867 0.0258,-0.067 0.0616,-0.1039 0.10742,-0.10937 z m -163.41016,56.13867 -11.43945,0.0762 c 0,15.781 0.45411,33.03317 0.83398,47.82227 0.37988,14.7892 0.90277,29.2695 1.47852,43.8125 0.57575,14.5431 1.33003,87.6359 2.13086,87.6289 1.11353,-0.01 1.44921,0.0774 2.44141,0.0664 z m 430.97852,26.61328 c -346.64635,-0.30989 -347.11914,-0.30678 -347.11914,2.16016 0,2.46694 0.47279,2.47004 347.11914,2.16015 307.67158,-0.27499 347.11718,-0.52067 347.11718,-2.16015 0,-1.63949 -39.4456,-1.88516 -347.11718,-2.16016 z m -487.20117,63.97852 c -0.23092,0.01 -0.43603,0.11635 -0.60547,0.34375 -0.77587,1.0413 3.76606,13.31761 5.14844,13.91601 0.36392,0.1575 0.66362,0.24289 0.90234,0.24219 1.03446,0 0.90646,-1.60628 -0.27149,-5.79688 -1.36842,-4.8681 -3.76265,-8.73917 -5.17382,-8.70507 z m 89.13086,11.125 v 0.002 c -0.23282,0 -0.47409,0.047 -0.69922,0.14844 -0.60035,0.2712 -1.18599,0.83017 -1.79883,1.70507 -0.9453,1.3496 -1.70508,3.1456 -1.70508,4.3711 0,0.7961 0.17205,1.41808 0.57813,1.83008 0.25379,0.2575 0.59106,0.3882 0.9414,0.4082 h 0.15821 c 0.15884,-0.01 0.3184,-0.034 0.4707,-0.082 1.08303,-0.3441 2.11189,-1.4981 2.83594,-3.2461 0.43904,-1.0599 0.66031,-2.00026 0.69921,-2.78906 0.0389,-0.7889 -0.0865,-1.4452 -0.48046,-1.9043 -0.19696,-0.2296 -0.47104,-0.37127 -0.77149,-0.42187 -0.0751,-0.013 -0.1509,-0.0205 -0.22851,-0.0215 z m -81.30274,6.5039 c -0.14743,0 -0.35585,0.10727 -0.43945,0.23047 -0.0835,0.1233 -0.0888,0.2162 -0.0937,0.2832 -0.009,0.134 0.0106,0.21013 0.0312,0.29883 0.0415,0.1773 0.11212,0.37857 0.21289,0.63867 0.20154,0.5204 0.52461,1.25267 0.95117,2.16797 0.85312,1.8307 2.11832,4.38562 3.61914,7.32031 3.00167,5.86941 6.94025,13.24905 10.36914,19.30665 3.42344,6.0479 7.8883,14.03538 9.91602,17.74218 1.72146,3.1469 2.87332,5.14678 3.5332,6.17188 0.16497,0.2563 0.299,0.45075 0.41211,0.59765 0.0566,0.073 0.10586,0.13486 0.16406,0.19336 0.0582,0.058 0.0836,0.13621 0.31641,0.19141 0.0291,0.01 0.0652,0.0108 0.10547,0.01 0.12076,0 0.27684,-0.0431 0.37695,-0.13868 0.13351,-0.1268 0.15211,-0.25002 0.16211,-0.32422 0.0193,-0.14829 -0.004,-0.2093 -0.0215,-0.2871 -0.0344,-0.1555 -0.0926,-0.32579 -0.17774,-0.55079 -0.6812,-1.8003 -3.14427,-6.90648 -7.01562,-14.33398 -4.31395,-8.2767 -9.65084,-18.09034 -13.99024,-25.83984 -2.16969,-3.8747 -4.08897,-7.23306 -5.50976,-9.62696 -0.7104,-1.1969 -1.29531,-2.1519 -1.72852,-2.8164 -0.2166,-0.3323 -0.39414,-0.59 -0.53906,-0.7793 -0.0725,-0.095 -0.13518,-0.17179 -0.20508,-0.24219 -0.0349,-0.035 -0.0711,-0.069 -0.12695,-0.10742 -0.056,-0.039 -0.12771,-0.10547 -0.32227,-0.10547 z m 76.43945,6.00781 v 0.002 c -0.12961,0 -0.245,0.0323 -0.33593,0.0703 -0.29097,0.1228 -0.50724,0.32654 -0.79492,0.61914 -0.1767,0.1797 -0.24182,0.32926 -0.39063,0.60156 -0.14881,0.2723 -0.33243,0.63116 -0.54687,1.06836 -0.42886,0.8744 -0.98379,2.06144 -1.6211,3.46094 -1.27459,2.7991 -2.87896,6.4446 -4.45117,10.0957 -1.57221,3.6512 -3.11105,7.30736 -4.25586,10.12696 -0.57241,1.4097 -1.04594,2.6096 -1.37695,3.5 -0.16551,0.4452 -0.29642,0.8123 -0.38672,1.0957 -0.0451,0.1417 -0.0797,0.26189 -0.10547,0.36719 -0.0258,0.1052 -0.05,0.17252 -0.043,0.32812 0.005,0.1096 0.006,0.21645 0.0879,0.37305 0.041,0.078 0.11458,0.17744 0.23633,0.24414 0.0913,0.05 0.20062,0.0674 0.29492,0.0644 0.0314,-10e-4 0.061,-0.01 0.0879,-0.01 0.21535,-0.043 0.29747,-0.13841 0.38086,-0.22071 0.0834,-0.082 0.15478,-0.1726 0.23438,-0.2832 0.31837,-0.4424 0.74427,-1.20869 1.36718,-2.43359 1.24582,-2.4499 3.2397,-6.69295 6.29297,-13.33985 2.81644,-6.1313 4.60675,-10.29777 5.4375,-12.70117 0.20769,-0.6009 0.35717,-1.09168 0.44727,-1.48828 0.0901,-0.3967 0.14552,-0.6763 0.0684,-1 -0.0386,-0.1618 -0.15436,-0.38447 -0.38086,-0.48438 -0.0849,-0.038 -0.16832,-0.0536 -0.2461,-0.0566 z m -49.41992,1.99219 c -0.65976,0 -1.29268,0.34705 -1.57226,0.96875 -0.27959,0.6217 -0.3049,1.42569 -0.17774,2.52539 0.25433,2.1993 1.18834,5.61811 2.85352,10.81641 0.82308,2.5695 1.5719,5.07265 2.11328,7.03125 0.27069,0.9793 0.48881,1.8239 0.63867,2.4668 0.14991,0.6428 0.22461,1.13602 0.22461,1.20312 0,0.4665 0.0744,0.89124 0.22266,1.24414 0.0741,0.1765 0.16621,0.33646 0.30468,0.47656 0.13846,0.1401 0.3494,0.26758 0.59766,0.26758 0.22024,0 0.42293,-0.14468 0.51563,-0.27148 0.0927,-0.1268 0.13015,-0.24328 0.16015,-0.36328 0.0601,-0.24 0.0753,-0.50728 0.0723,-0.82618 -0.006,-0.6377 -0.10533,-1.47027 -0.29102,-2.38867 -0.35432,-1.7525 -1.08956,-6.3785 -1.62304,-10.2207 -0.74096,-5.3366 -1.23764,-8.46061 -1.76368,-10.31641 -0.26302,-0.9278 -0.52685,-1.54867 -0.89843,-1.98437 -0.37159,-0.4358 -0.89223,-0.62891 -1.37696,-0.62891 z m 5.94532,29.21485 0.002,0.002 v 0.004 c -0.17182,3e-4 -0.34995,0.0818 -0.44141,0.16797 -0.20908,0.1968 -0.22588,0.3619 -0.26758,0.5625 -0.0417,0.2006 -0.0674,0.43912 -0.0801,0.72852 l -0.0215,0.49023 h 0.082 c 0.30913,0 0.006,0.59465 0.0977,0.81055 0.0737,0.1733 0.18144,0.37571 0.4668,0.47461 0.0713,0.025 0.14499,0.0352 0.21679,0.0332 0.2155,-0.01 0.41981,-0.1103 0.53711,-0.2207 0.31277,-0.2945 0.40057,-0.67942 0.41797,-1.07813 0.0174,-0.3988 -0.0559,-0.82847 -0.22851,-1.23437 -0.0909,-0.2138 -0.16553,-0.3732 -0.32227,-0.5293 -0.0784,-0.078 -0.19234,-0.17182 -0.38477,-0.19922 -0.0181,0 -0.0624,-0.01 -0.0742,-0.0117 z m 19.31054,0.99414 c -0.081,0 -0.15665,0.017 -0.21484,0.041 -0.15518,0.065 -0.24449,0.15049 -0.33399,0.24219 -0.17891,0.1835 -0.34285,0.42063 -0.54687,0.73633 -0.59092,0.9144 -1.05425,2.15542 -1.06445,3.07422 -0.005,0.4634 0.12976,0.9025 0.49414,1.1582 0.18218,0.1278 0.39971,0.17761 0.61914,0.16601 0.21943,-0.012 0.44077,-0.084 0.63281,-0.20312 0.45975,-0.2842 0.71293,-0.77144 0.91211,-1.33984 0.19918,-0.5683 0.31455,-1.23159 0.31055,-1.89649 -0.003,-0.4539 -0.0162,-0.80799 -0.0527,-1.0918 -0.0182,-0.1419 -0.0408,-0.26747 -0.084,-0.39257 -0.0432,-0.1252 -0.1022,-0.26968 -0.27735,-0.39258 -0.10947,-0.077 -0.2595,-0.10586 -0.39453,-0.10156 z m 9.11524,1.99023 c -0.13952,0 -0.24624,0.0438 -0.33594,0.0898 -0.35882,0.1851 -0.58593,0.49216 -0.875,0.93946 -0.28908,0.4473 -0.54245,0.95846 -0.73047,1.44336 -0.18802,0.4849 -0.32031,0.92092 -0.32031,1.32812 0,0.2036 0.0107,0.43723 0.24609,0.64453 0.1177,0.1036 0.29409,0.15925 0.4336,0.15625 0.13952,0 0.24623,-0.0458 0.33593,-0.0918 0.35882,-0.1851 0.58593,-0.4902 0.875,-0.9375 0.28908,-0.4473 0.54246,-0.96042 0.73047,-1.44532 0.18803,-0.4849 0.31836,-0.91897 0.31836,-1.32617 0,-0.2036 -0.0107,-0.43918 -0.24609,-0.64648 -0.11768,-0.1036 -0.29213,-0.1574 -0.43164,-0.1543 z m 28.95703,1.80469 c -0.39513,0 -0.61999,0.16352 -1.00977,0.39062 -0.38978,0.2271 -0.8774,0.55207 -1.47461,0.98047 -1.19442,0.8568 -2.82114,2.12397 -4.875,3.79297 -4.10771,3.3381 -9.91788,8.28313 -17.31054,14.74023 -0.81016,0.7076 -1.30717,1.16575 -1.56641,1.46875 -0.0648,0.076 -0.11788,0.12956 -0.17578,0.25586 -0.029,0.063 -0.0854,0.15337 -0.0391,0.35547 0.0232,0.101 0.0951,0.22342 0.1875,0.29492 0.0924,0.072 0.1837,0.0971 0.25,0.10547 0.0331,0 0.0633,0.01 0.0898,0.01 0.18576,0.011 0.22243,-0.0471 0.29883,-0.0801 0.0873,-0.037 0.1757,-0.0831 0.28125,-0.14258 0.84441,-0.4733 2.77218,-1.80734 5.89258,-4.06054 5.22199,-3.7708 12.08718,-8.57957 15.23242,-10.66797 2.70411,-1.7954 4.58499,-3.42952 5.48242,-4.73242 0.44877,-0.6514 0.72291,-1.27176 0.48047,-1.88086 -0.12123,-0.3046 -0.38713,-0.53526 -0.68945,-0.66016 -0.30231,-0.1248 -0.6482,-0.17192 -1.05469,-0.16992 z m -73.96485,4.99609 c -0.11678,0 -0.28494,0.039 -0.41015,0.1543 -0.1252,0.1148 -0.1742,0.26755 -0.1875,0.37695 -0.0265,0.2188 0.0249,0.3478 0.0801,0.4961 0.11027,0.2966 0.30172,0.63614 0.57031,1.05664 0.53718,0.8411 1.38295,1.96803 2.42187,3.21093 1.03742,1.2411 2.02473,2.32353 2.79493,3.07813 0.38511,0.3773 0.71212,0.6717 0.98437,0.875 0.13613,0.1017 0.25475,0.18059 0.39648,0.24219 0.0709,0.031 0.14788,0.0614 0.26563,0.0684 0.11775,0.01 0.31022,-0.0309 0.44531,-0.16602 0.21936,-0.2193 0.19667,-0.46916 0.16797,-0.63086 -0.0287,-0.1617 -0.084,-0.30624 -0.15625,-0.46484 -0.14476,-0.3171 -0.36524,-0.68543 -0.64648,-1.11133 -0.56249,-0.852 -1.36444,-1.91007 -2.21875,-2.95117 -0.85431,-1.0412 -1.7594,-2.06324 -2.5293,-2.83594 -0.38495,-0.3864 -0.73477,-0.70912 -1.04102,-0.94922 -0.15312,-0.12 -0.295,-0.22033 -0.4375,-0.29883 -0.14249,-0.079 -0.27751,-0.15039 -0.5,-0.15039 z m -20.10351,0.2832 v 0.002 c -0.0185,-6e-4 -0.038,5e-4 -0.0586,0 -0.0494,0 -0.1054,0.0151 -0.17187,0.0371 -0.10974,0.037 -0.26073,0.14067 -0.33203,0.29297 -0.0713,0.1523 -0.0581,0.29461 -0.0352,0.38671 0.0458,0.1842 0.11751,0.26654 0.19531,0.36524 0.15558,0.1975 0.37392,0.40622 0.67383,0.66992 0.59982,0.5274 1.51507,1.24268 2.68946,2.10938 2.34876,1.7336 5.72968,4.06333 9.58593,6.58203 6.61415,4.32 11.13394,7.1762 13.33203,8.4375 0.54953,0.3153 0.94743,0.52979 1.23047,0.65429 0.14152,0.062 0.21154,0.11796 0.4336,0.12696 0.0555,0 0.12933,-2e-5 0.23828,-0.041 0.10895,-0.045 0.25173,-0.17666 0.29883,-0.32226 0.0941,-0.2912 -0.0225,-0.39891 -0.0664,-0.47071 -0.0878,-0.1436 -0.16949,-0.21663 -0.29102,-0.33203 -0.12151,-0.1154 -0.27735,-0.25061 -0.4707,-0.41211 -0.38666,-0.3229 -0.92583,-0.748 -1.6289,-1.2832 -4.43773,-3.3783 -10.55832,-7.63116 -15.69336,-11.00586 -2.56752,-1.6874 -4.88604,-3.15475 -6.63086,-4.18555 -0.87241,-0.5154 -1.60097,-0.92121 -2.1543,-1.19531 -0.27667,-0.137 -0.50746,-0.2413 -0.70703,-0.3125 -0.0998,-0.036 -0.19106,-0.064 -0.28906,-0.082 -0.0459,-0.01 -0.093,-0.0195 -0.14844,-0.0215 z m 87.89453,0.22852 c -0.41044,0.3336 -1.0309,0.86693 -1.3125,1.07813 -2.91906,2.3959 -6.99077,5.88181 -11.41016,9.69921 4.74234,-4.0992 9.24599,-7.9712 12.16797,-10.3457 0.23348,-0.1897 0.38486,-0.30234 0.55469,-0.43164 z m -18.54883,0.48633 v 0.002 c -0.34389,0 -0.57198,0.1571 -0.80859,0.3418 -0.23662,0.1846 -0.47439,0.4265 -0.71875,0.7168 -0.48873,0.5805 -1.00069,1.35493 -1.44336,2.21093 -0.46488,0.899 -0.73027,1.61867 -0.82617,2.19727 -0.0479,0.2893 -0.0578,0.54572 0.006,0.79492 0.0635,0.2492 0.24445,0.5165 0.51562,0.625 0.10169,0.041 0.20314,0.0586 0.30274,0.0606 0.16599,0 0.32676,-0.0367 0.4746,-0.0957 0.23655,-0.093 0.46461,-0.24075 0.70704,-0.43945 0.48485,-0.3972 1.02483,-1.00391 1.61718,-1.84961 0.91089,-1.3004 1.44626,-2.25389 1.57032,-3.05859 0.062,-0.4023 -0.003,-0.8312 -0.28907,-1.125 -0.28575,-0.2937 -0.68559,-0.38086 -1.10742,-0.38086 z m -62.21289,4.49023 c 0.69324,0.4303 1.39677,0.87029 2.24805,1.42969 0.67732,0.4452 1.38734,0.98237 2.06836,1.45117 -1.58848,-1.0302 -3.06629,-2.06686 -4.31641,-2.88086 z m 70.52149,13.86328 c -0.28287,0 -0.59076,0.0559 -0.93165,0.14454 -0.68177,0.1778 -1.49032,0.50501 -2.30273,0.94531 -0.58982,0.3196 -1.04458,0.57692 -1.38281,0.79492 -0.33824,0.218 -0.56222,0.3373 -0.73438,0.6582 -0.0861,0.1605 -0.10335,0.4954 0.0469,0.6875 0.15018,0.1922 0.30762,0.23429 0.44726,0.27149 0.27929,0.074 0.59137,0.0848 1.01758,0.0898 1.3109,0.016 2.66539,-0.39648 3.64063,-0.95508 0.48762,-0.2793 0.88466,-0.58551 1.13476,-0.97851 0.12503,-0.1965 0.21503,-0.42765 0.20703,-0.68555 -0.008,-0.2578 -0.13012,-0.51872 -0.31445,-0.70312 -0.25376,-0.2537 -0.54524,-0.27254 -0.82812,-0.26954 z m -82.77149,0.62696 c -0.16606,0.008 -0.24734,0.0602 -0.17383,0.19531 -0.5228,0.025 -0.98027,0.0768 -1.37109,0.16016 -0.39113,0.083 -0.71393,0.1922 -0.98828,0.3789 -0.27436,0.1868 -0.5293,0.53342 -0.5293,0.94531 0,0.4926 0.2122,0.90773 0.49219,1.26563 0.27999,0.358 0.64681,0.66132 1.07031,0.85352 l 0.6875,0.3125 v -0.17969 c 0.2103,0.035 0.34606,0.091 0.64649,0.12304 0.62,0.067 1.423,0.12623 2.35742,0.17383 1.86882,0.095 4.26532,0.14492 6.74804,0.13282 l 9,-0.043 0.0977,-1.11328 -6.5,-1.5 c -3.84718,-0.8878 -7.36526,-1.40172 -9.95117,-1.50782 -0.44373,-0.0178 -1.2206,-0.21532 -1.58594,-0.19726 z m 61.66211,2.97461 c -0.46339,0.002 -1.06433,0.32652 -1.85742,1.09179 -1.59644,1.1356 -5.75397,3.71495 -8.70703,3.71485 -4.19443,0.2686 -11.89599,-8.17676 -11.50586,0.68554 0,15.3818 23.88281,15.3818 23.88281,0 -0.28198,-2.60167 -0.42234,-5.49806 -1.8125,-5.49218 z m 39.19727,0.13086 c -1.48163,0 -3.69587,0.37091 -6.50586,0.91211 l -7.5,1.44335 0.0762,1.13868 7,0.125 c 1.94216,0.035 3.8578,-0.0428 5.39453,-0.20118 0.76836,-0.079 1.44072,-0.17636 1.98242,-0.29296 0.54171,-0.1165 0.92966,-0.21568 1.25391,-0.45118 0.34415,-0.2499 0.60881,-0.4775 0.80859,-0.7207 0.1998,-0.2432 0.38319,-0.54212 0.33399,-0.94922 -0.0492,-0.4071 -0.34461,-0.65774 -0.60547,-0.77734 -0.26086,-0.1197 -0.55698,-0.17579 -0.92383,-0.20899 -0.36685,-0.033 -0.66821,-0.0176 -1.16211,-0.0176 z" /></g></svg>
