<?xml version="1.0" encoding="UTF-8"?>
<!-- Favicon du site Atelier Laser : logo sur plaque blanche arrondie. -->
<svg xmlns="http://www.w3.org/2000/svg" viewBox="0 0 64 64">
  <rect x="1" y="1" width="62" height="62" rx="14" fill="#ffffff"/>
  <svg x="17.5" y="4" width="29" height="56" viewBox="0 0 23.443869 45.275992">
<g
     id="layer2"
     transform="translate(-27.68092,-53.458997)">
    <path
       id="path89"
       style="baseline-shift:baseline;display:inline;overflow:visible;vector-effect:none;fill:#ff6600;fill-rule:evenodd;stroke-linejoin:round;paint-order:markers fill stroke;enable-background:accumulate;stop-color:#000000;stop-opacity:1"
       d="m 159.77577,123.9864 c -0.85797,1.18312 -2.73832,2.76236 -5.42189,3.33675 -3.14032,0.63753 -5.65712,0.88151 -7.0931,1.15858 -0.017,0.0326 0.0138,0.15532 0.0403,0.20102 0.0344,0.0593 0.13056,0.0483 0.22376,0.0372 1.54509,-0.13656 3.09493,-0.0626 4.64055,0.0351 1.12431,0.0641 2.287,0.1307 3.31969,0.108 1.85073,-0.58622 4.11974,-1.82256 5.02553,-3.26646 z m 2.68149,19.867 -0.90072,0.006 a 0.07437994,0.07437994 0 0 0 -0.0739,0.0786 c 0.23735,4.66291 0.0203,9.13698 0.34933,14.11129 a 0.07437994,0.07437994 0 0 0 0.0765,0.0682 c 0.0836,-0.001 0.1085,0.007 0.1912,0.006 a 0.07437994,0.07437994 0 0 0 0.0744,-0.0723 l 0.35708,-14.12111 a 0.07437994,0.07437994 0 0 0 -0.0739,-0.0765 z m -3.80803,8.47545 c -0.015,7e-4 -0.0283,0.007 -0.0393,0.0222 -0.0503,0.0675 0.24423,0.86348 0.33383,0.90228 0.0236,0.0105 0.043,0.0155 0.0584,0.0155 0.067,0 0.0588,-0.10404 -0.0176,-0.37569 -0.0888,-0.31563 -0.24388,-0.56631 -0.33538,-0.56431 z m 5.77897,0.72141 c -0.0151,0 -0.0308,0.003 -0.0455,0.01 -0.0389,0.0176 -0.077,0.0539 -0.11679,0.11058 -0.0613,0.0875 -0.11059,0.20421 -0.11059,0.28371 0,0.0516 0.0117,0.0916 0.0377,0.11834 0.0164,0.0164 0.0383,0.0254 0.061,0.0264 h 0.0103 c 0.0101,-0.001 0.0205,-0.003 0.0305,-0.006 0.0702,-0.0223 0.13707,-0.0975 0.18397,-0.21084 0.0285,-0.0687 0.042,-0.12925 0.045,-0.18035 0.003,-0.0512 -0.006,-0.0937 -0.031,-0.12351 -0.013,-0.0148 -0.0306,-0.0249 -0.0501,-0.0279 -0.004,-7.3e-4 -0.009,-5.1e-4 -0.0145,-5.1e-4 z m -5.27203,0.42116 c -0.0101,0 -0.0234,0.007 -0.0284,0.015 -0.006,0.009 -0.006,0.0146 -0.006,0.0186 -0.001,0.009 2.4e-4,0.0131 5.1e-4,0.0191 0.003,0.0115 0.008,0.0244 0.015,0.0413 0.013,0.0337 0.0338,0.0813 0.0615,0.14056 0.0554,0.11876 0.13783,0.28465 0.23513,0.47491 0.19461,0.38056 0.44999,0.85884 0.67231,1.2516 0.22196,0.39212 0.5114,0.90999 0.64286,1.15032 0.11155,0.20405 0.18612,0.33399 0.22892,0.40049 0.0101,0.0166 0.0199,0.0288 0.0269,0.0388 0.004,0.004 0.007,0.009 0.01,0.0129 0.004,0.004 0.006,0.009 0.0207,0.0129 h 5.1e-4 l 5.2e-4,5.1e-4 -5.2e-4,5.2e-4 c 0.002,3.1e-4 0.004,0 0.006,0 0.007,0 0.0188,-0.003 0.0248,-0.009 0.009,-0.009 0.0103,-0.0162 0.0103,-0.0212 0.001,-0.01 -2.8e-4,-0.0126 -0.001,-0.0186 -0.003,-0.0101 -0.006,-0.0212 -0.0114,-0.0357 -0.0441,-0.11675 -0.20373,-0.44757 -0.45475,-0.92914 -0.2797,-0.53664 -0.62608,-1.17288 -0.90744,-1.67535 -0.14067,-0.25121 -0.26498,-0.46903 -0.35708,-0.62425 -0.0461,-0.0775 -0.084,-0.13932 -0.11214,-0.18242 -0.0144,-0.0215 -0.0256,-0.0383 -0.0346,-0.0506 -0.004,-0.006 -0.009,-0.012 -0.0134,-0.016 -0.003,-0.003 -0.004,-0.004 -0.009,-0.007 -0.004,-0.003 -0.009,-0.007 -0.0207,-0.007 z m 4.95629,0.38964 5.2e-4,5.2e-4 c -0.009,0 -0.0162,0.003 -0.0222,0.004 -0.0189,0.009 -0.0325,0.0213 -0.0512,0.0403 -0.0115,0.0115 -0.0158,0.0215 -0.0258,0.0393 -0.0101,0.0176 -0.0212,0.0408 -0.0351,0.0692 -0.0278,0.0566 -0.0642,0.13348 -0.10542,0.22428 -0.0826,0.18148 -0.18642,0.41803 -0.28836,0.65474 -0.1019,0.23674 -0.20175,0.47348 -0.27595,0.65629 -0.0372,0.0914 -0.0681,0.16916 -0.0894,0.22686 -0.0101,0.0288 -0.0188,0.053 -0.0248,0.0713 -0.003,0.009 -0.006,0.0168 -0.007,0.0238 -0.001,0.007 -0.003,0.0112 -0.003,0.0212 0,0.007 2e-4,0.0143 0.006,0.0243 0.003,0.006 0.008,0.012 0.0155,0.016 0.006,0.003 0.0131,0.004 0.0191,0.004 v 5.2e-4 c 9e-4,-1.9e-4 0.002,-3.4e-4 0.004,-5.2e-4 h 5.2e-4 l 5.2e-4,-5.1e-4 h 5.1e-4 c 0.0144,-0.003 0.0198,-0.009 0.0248,-0.0145 0.006,-0.006 0.01,-0.0111 0.015,-0.0181 0.0206,-0.0287 0.0486,-0.0782 0.0889,-0.15761 0.0807,-0.15884 0.20976,-0.43411 0.40772,-0.86507 0.18261,-0.39754 0.29854,-0.6679 0.35244,-0.82372 0.013,-0.0389 0.0234,-0.0705 0.0294,-0.0961 0.006,-0.0258 0.0101,-0.044 0.004,-0.0651 -0.003,-0.0101 -0.01,-0.0255 -0.0243,-0.0315 -0.006,-0.003 -0.011,-0.003 -0.016,-0.004 z m -3.20394,0.12919 c -0.0428,0 -0.0836,0.0228 -0.1018,0.0631 -0.0184,0.0404 -0.0194,0.092 -0.0114,0.16329 0.0164,0.14255 0.0771,0.36472 0.185,0.70177 0.0533,0.1666 0.10174,0.32881 0.13694,0.45579 0.0176,0.0636 0.0314,0.11788 0.0413,0.15968 0.0105,0.0417 0.0145,0.074 0.0145,0.078 0,0.0303 0.004,0.0577 0.0145,0.0806 0.004,0.0115 0.01,0.022 0.0196,0.031 0.008,0.008 0.0192,0.015 0.0326,0.0171 h 5.1e-4 c 0.002,1.5e-4 0.004,0 0.006,0 0.0144,0 0.0276,-0.0106 0.0336,-0.0176 0.006,-0.009 0.009,-0.0153 0.01,-0.0232 0.004,-0.0156 0.004,-0.0331 0.004,-0.0538 -5e-4,-0.0414 -0.007,-0.0954 -0.0186,-0.15503 -0.0229,-0.11357 -0.0708,-0.41338 -0.10542,-0.66249 -0.048,-0.34601 -0.0802,-0.54836 -0.11421,-0.66869 -0.017,-0.0601 -0.0344,-0.10037 -0.0584,-0.12867 -0.024,-0.028 -0.0571,-0.0407 -0.0884,-0.0408 z m 0.38551,1.89394 c -0.0115,0 -0.0224,0.006 -0.0284,0.0124 -0.0126,0.013 -0.0146,0.0232 -0.0176,0.0362 -0.003,0.013 -0.004,0.0282 -0.006,0.047 l -0.001,0.0315 h 0.006 l 5.2e-4,5.1e-4 c 7.8e-4,1.7e-4 0.003,4e-4 0.004,5.2e-4 h 5.1e-4 l 5.2e-4,5.2e-4 5.2e-4,5.1e-4 5.1e-4,5.2e-4 h 5.2e-4 l 5.2e-4,5.2e-4 c 0.007,0.009 -0.006,0.0379 -0.001,0.0496 0.004,0.0115 0.0117,0.025 0.0305,0.031 0.003,0.001 0.007,0.002 0.0109,0.003 h 5.2e-4 c 7.5e-4,3e-5 0.002,0 0.003,0 0.0144,-7e-4 0.0271,-0.007 0.0351,-0.0139 0.0199,-0.019 0.0259,-0.0445 0.0269,-0.0703 0.001,-0.0258 -0.004,-0.0534 -0.0145,-0.0796 -0.006,-0.0144 -0.0104,-0.0245 -0.0212,-0.0346 -0.006,-0.006 -0.0129,-0.0119 -0.0248,-0.0129 -0.001,0 -0.004,-5.2e-4 -0.004,-5.2e-4 z m 1.2516,0.0641 5.2e-4,5.2e-4 c -0.007,0 -0.0105,0.001 -0.0145,0.003 -0.0101,0.004 -0.0157,0.01 -0.0217,0.0155 -0.0116,0.0115 -0.0224,0.0276 -0.0357,0.0481 -0.0383,0.0592 -0.068,0.13946 -0.0687,0.19896 -3e-4,0.03 0.009,0.0588 0.032,0.0754 0.009,0.006 0.0188,0.01 0.0294,0.0103 v 5.1e-4 c 0.004,1.7e-4 0.007,-1.6e-4 0.0108,-5.1e-4 0.0144,-7e-4 0.0282,-0.006 0.0408,-0.0129 0.0298,-0.0185 0.0466,-0.0499 0.0594,-0.0868 0.0132,-0.0369 0.0204,-0.08 0.0202,-0.12299 0,-0.0294 -0.001,-0.0523 -0.003,-0.0708 -10e-4,-0.009 -0.003,-0.0173 -0.006,-0.0253 -0.003,-0.009 -0.007,-0.0178 -0.0181,-0.0258 -0.007,-0.004 -0.0163,-0.007 -0.0253,-0.007 z m 0.58808,0.12919 c -0.007,6.2e-4 -0.0134,0.004 -0.0186,0.006 -0.0232,0.0115 -0.038,0.0318 -0.0568,0.061 -0.0187,0.029 -0.0348,0.0621 -0.047,0.0935 -0.0117,0.0314 -0.0207,0.0599 -0.0207,0.0863 0,0.013 7.2e-4,0.0284 0.016,0.0419 0.007,0.007 0.0189,0.01 0.0279,0.01 0.009,0 0.0157,-0.003 0.0217,-0.006 0.0232,-0.0115 0.0381,-0.032 0.0569,-0.061 0.0187,-0.029 0.0353,-0.0621 0.0475,-0.0935 0.0117,-0.0314 0.0207,-0.0594 0.0207,-0.0858 0,-0.013 -7.2e-4,-0.0285 -0.016,-0.0419 -0.007,-0.007 -0.0194,-0.0103 -0.0284,-0.0103 -0.001,0 -0.002,-9e-5 -0.003,0 z m 1.87947,0.11731 0.001,5.1e-4 c -0.0257,0 -0.0404,0.01 -0.0656,0.0253 -0.0252,0.0147 -0.0569,0.0363 -0.0956,0.0641 -0.0774,0.0555 -0.18309,0.13733 -0.31626,0.24547 -0.26633,0.21642 -0.64258,0.53734 -1.12189,0.95601 -0.0525,0.0458 -0.085,0.0753 -0.1018,0.0951 -0.004,0.004 -0.006,0.009 -0.0114,0.0165 -10e-4,0.004 -0.006,0.0103 -0.003,0.0233 0.001,0.007 0.005,0.0141 0.0114,0.0191 0.006,0.004 0.011,0.006 0.016,0.007 0.003,0 0.004,3e-4 0.005,5.1e-4 l -0.001,5.2e-4 c 0.001,3e-5 0.002,-2e-5 0.002,0 0.0116,0 0.0146,-0.003 0.0196,-0.006 0.006,-0.003 0.0111,-0.006 0.0181,-0.009 0.0548,-0.0307 0.17958,-0.11694 0.38189,-0.26303 0.33857,-0.24448 0.78412,-0.55656 0.98805,-0.69195 0.17533,-0.11646 0.29682,-0.22246 0.35502,-0.30696 0.0295,-0.0422 0.0472,-0.0819 0.0315,-0.12143 -0.007,-0.0197 -0.0254,-0.0349 -0.045,-0.0429 -0.0196,-0.009 -0.0418,-0.0119 -0.0682,-0.0119 z m -4.79764,0.32453 c -0.007,7.2e-4 -0.0168,0.004 -0.0238,0.0103 -0.009,0.007 -0.0114,0.0173 -0.0114,0.0243 -0.001,0.0144 0.001,0.022 0.006,0.032 0.007,0.0192 0.0198,0.0414 0.0372,0.0687 0.0349,0.0545 0.0898,0.12714 0.15709,0.20774 0.0673,0.0804 0.13097,0.15109 0.18087,0.19999 0.0249,0.0245 0.0463,0.0435 0.0641,0.0568 0.009,0.007 0.0163,0.0115 0.0253,0.0155 0.004,0.001 0.0106,0.004 0.0176,0.004 l -5.1e-4,5.2e-4 c 0.007,8e-4 0.0199,-0.001 0.0289,-0.0103 0.0144,-0.0144 0.0134,-0.0303 0.0114,-0.0408 -0.001,-0.0101 -0.006,-0.0198 -0.0103,-0.03 -0.0101,-0.0207 -0.0236,-0.0446 -0.0419,-0.0723 -0.0365,-0.0552 -0.0884,-0.12371 -0.14366,-0.19121 -0.0553,-0.0675 -0.11381,-0.13386 -0.16381,-0.18396 -0.0249,-0.0251 -0.0479,-0.046 -0.0677,-0.0615 -0.0101,-0.007 -0.0194,-0.0141 -0.0284,-0.0191 -0.009,-0.006 -0.0182,-0.0103 -0.0326,-0.0103 h -0.002 c -6.5e-4,0 -0.002,-2e-5 -0.003,0 z m -1.3069,0.0181 c -0.003,3.8e-4 -0.005,0.002 -0.009,0.003 -0.007,0.003 -0.0162,0.009 -0.0212,0.0186 -0.004,0.0101 -0.004,0.0193 -0.003,0.0253 0.003,0.0115 0.007,0.0178 0.0129,0.0238 0.0101,0.013 0.0239,0.0264 0.0434,0.0434 0.0389,0.0341 0.0986,0.0802 0.17466,0.13642 0.15228,0.11242 0.37164,0.26355 0.62167,0.42685 0.42885,0.2801 0.72152,0.46545 0.86403,0.54725 0.0356,0.0205 0.0616,0.0344 0.0801,0.0424 0.009,0.004 0.0142,0.007 0.0279,0.009 0.003,0 0.01,-1e-4 0.0155,-0.003 0.007,-0.003 0.0161,-0.0117 0.0191,-0.0207 0.006,-0.0189 -6.2e-4,-0.0255 -0.004,-0.0305 -0.006,-0.009 -0.0116,-0.0147 -0.0186,-0.0217 -0.007,-0.007 -0.0184,-0.0165 -0.031,-0.0269 -0.0251,-0.0209 -0.0599,-0.0484 -0.10542,-0.0832 -0.28774,-0.21903 -0.68457,-0.49434 -1.01751,-0.71314 -0.16647,-0.1094 -0.31681,-0.20501 -0.42994,-0.27181 -0.0565,-0.0334 -0.10363,-0.0596 -0.13953,-0.0775 -0.0179,-0.009 -0.0331,-0.0152 -0.046,-0.0202 -0.006,-0.003 -0.0126,-0.004 -0.0186,-0.006 -0.003,-7.1e-4 -0.006,-0.001 -0.0103,-0.001 -0.001,1e-5 -0.002,3e-5 -0.003,0 -4.3e-4,0 -0.002,2e-5 -0.002,0 z m 5.70405,0.0155 c -0.0259,0.021 -0.0632,0.0535 -0.0816,0.0677 0.013,-0.0108 0.0362,-0.0312 0.0475,-0.0408 0.0144,-0.0124 0.0236,-0.0189 0.0341,-0.0269 z m -1.20975,0.031 c -0.0178,0.002 -0.0305,0.0112 -0.0439,0.0217 -0.0153,0.0115 -0.0306,0.0278 -0.0465,0.0465 -0.0317,0.0376 -0.0649,0.0881 -0.0935,0.14366 -0.0301,0.0582 -0.0477,0.10462 -0.0537,0.14212 -0.003,0.0187 -0.003,0.0356 5.2e-4,0.0517 0.004,0.0161 0.0161,0.0338 0.0336,0.0408 0.005,0.003 0.009,0.003 0.0145,0.004 0.001,1.4e-4 0.003,0 0.005,0 0.0101,0 0.0205,-0.003 0.0305,-0.006 0.0153,-0.006 0.0303,-0.0155 0.046,-0.0284 0.0314,-0.0258 0.0665,-0.0651 0.1049,-0.11989 0.0591,-0.0843 0.0938,-0.14624 0.1018,-0.19844 0.004,-0.0261 -6.2e-4,-0.0539 -0.0191,-0.0729 -0.0185,-0.0188 -0.0442,-0.0247 -0.0713,-0.0248 h -5.2e-4 c -0.003,1e-5 -0.006,-3.1e-4 -0.008,0 z m -4.02404,0.29146 c 0.0446,0.0278 0.09,0.0561 0.14469,0.092 0.044,0.0288 0.0901,0.0636 0.13436,0.0941 -0.10255,-0.0664 -0.19825,-0.13343 -0.27905,-0.18603 z m 4.5713,0.89865 c -0.0183,0 -0.0384,0.004 -0.0605,0.0103 -0.0443,0.0115 -0.0966,0.0324 -0.14934,0.061 -0.0382,0.0207 -0.0675,0.0376 -0.0894,0.0517 -0.0219,0.0144 -0.0364,0.0221 -0.0475,0.0429 -0.006,0.0101 -0.007,0.032 0.003,0.0444 0.0101,0.0126 0.0199,0.0156 0.0289,0.0176 0.0182,0.004 0.0384,0.006 0.0661,0.006 v 5.1e-4 c 0.085,0.001 0.17245,-0.0257 0.23565,-0.062 0.0316,-0.0182 0.0578,-0.0381 0.0739,-0.0636 0.009,-0.013 0.0139,-0.0277 0.0129,-0.0444 -5e-4,-0.0167 -0.009,-0.0336 -0.0207,-0.0455 -0.0164,-0.0166 -0.0352,-0.0179 -0.0537,-0.0176 z m -5.36712,0.0393 c -0.005,8.8e-4 -0.008,0.002 -0.0103,0.003 l -5.2e-4,5.2e-4 h -5.2e-4 l -5.1e-4,5.2e-4 -5.2e-4,5.1e-4 v 5.2e-4 l -5.2e-4,5.2e-4 c -4e-5,0.001 3e-5,0.002 0,0.002 v 5.1e-4 5.2e-4 c 0.001,0.002 0.001,0.003 0.002,0.005 -0.0339,10e-4 -0.0636,0.004 -0.0889,0.01 -0.0254,0.006 -0.0463,0.0133 -0.0641,0.0248 -0.0177,0.0115 -0.0346,0.0343 -0.0346,0.061 0,0.032 0.0145,0.059 0.032,0.0822 0.0181,0.0232 0.0418,0.0429 0.0692,0.0553 l 0.0444,0.0207 v -0.0119 c 0.013,0.003 0.0225,0.006 0.0419,0.009 0.0402,0.004 0.0923,0.009 0.15296,0.0114 0.12121,0.006 0.27673,0.01 0.4377,0.009 l 0.58343,-0.004 0.006,-0.0724 -0.42168,-0.0971 c -0.24945,-0.0575 -0.47727,-0.0907 -0.64492,-0.0977 -0.0288,-0.001 -0.0791,-0.0144 -0.10283,-0.0134 z m 4.22145,0.0636 c -0.0381,7e-4 -0.0559,0.0132 -0.078,0.0253 -0.0227,0.0123 -0.0462,0.0288 -0.0739,0.047 -0.0554,0.0363 -0.1222,0.0827 -0.1974,0.12868 -0.15032,0.092 -0.33206,0.17776 -0.48059,0.17776 a 0.07437994,0.07437994 0 0 0 -0.006,0 c -0.0563,0.004 -0.14864,-0.0271 -0.24804,-0.0739 -0.0994,-0.0468 -0.20502,-0.10576 -0.30644,-0.14676 -0.10142,-0.041 -0.20893,-0.0721 -0.30283,-0.0134 -0.0469,0.0294 -0.0799,0.0801 -0.0977,0.14056 -0.0176,0.0605 -0.0236,0.13198 -0.0196,0.22428 5.7e-4,0.32089 0.12909,0.57005 0.32039,0.73432 0.19173,0.16469 0.44256,0.24649 0.6935,0.24649 0.25095,0 0.50384,-0.0818 0.69556,-0.24649 0.19173,-0.16464 0.31988,-0.41395 0.31988,-0.73587 a 0.07437994,0.07437994 0 0 0 0,-0.008 c -0.0109,-0.10076 -0.0194,-0.21093 -0.0408,-0.30283 -0.0107,-0.046 -0.0229,-0.0875 -0.0486,-0.12505 -0.0257,-0.0376 -0.076,-0.072 -0.12919,-0.0718 z m -0.82579,0.0941 c 0.0149,10e-4 0.0348,8.6e-4 0.0486,0.002 v 5.1e-4 c -0.0138,-0.001 -0.0337,-0.001 -0.0486,-0.002 z m 3.14451,0.045 c -0.0961,0 -0.24,0.0244 -0.4222,0.0594 l -0.48627,0.0935 0.004,0.0734 0.45372,0.009 5.2e-4,0.001 c 0.12597,0.003 0.25025,-0.003 0.34985,-0.0129 0.0499,-0.006 0.0935,-0.0121 0.12867,-0.0191 0.0352,-0.007 0.06,-0.0147 0.0811,-0.0295 0.0223,-0.0162 0.0397,-0.0308 0.0527,-0.0465 0.0127,-0.0159 0.0247,-0.0352 0.0217,-0.0615 -0.003,-0.0264 -0.0229,-0.0426 -0.0398,-0.0506 -0.0169,-0.007 -0.0356,-0.0119 -0.0594,-0.0129 -0.0238,-0.003 -0.0435,-0.001 -0.0754,-0.001 z m -2.31717,0.01 h 5.2e-4 v 5.2e-4 l 5.1e-4,5.2e-4 c 2.5e-4,5.7e-4 6.4e-4,0.002 0.001,0.003 h -5.2e-4 c -0.001,-0.001 -0.001,-0.002 -0.002,-0.003 z m 0.002,0.004 h 5.2e-4 l 5.1e-4,5.1e-4 c 6.4e-4,7.3e-4 0.001,0.002 0.002,0.003 -0.002,-0.002 -0.003,-0.003 -0.003,-0.004 z m -0.007,0.003 c -7e-4,3.5e-4 -0.001,0.001 -0.002,0.002 -0.0155,0.008 -0.0381,0.0235 -0.0646,0.0408 -0.0529,0.0346 -0.12379,0.0821 -0.20309,0.13074 -0.0791,0.0484 -0.16728,0.0977 -0.26096,0.13539 0.0937,-0.0377 0.18187,-0.0875 0.26096,-0.13591 0.0793,-0.0486 0.15019,-0.096 0.20309,-0.13074 0.0265,-0.0173 0.0491,-0.0328 0.0646,-0.0408 7.3e-4,-5e-4 0.001,-6.8e-4 0.002,-0.001 z m 0.0233,0.0284 c 0.005,0.0122 0.009,0.0272 0.0134,0.045 -0.004,-0.0178 -0.009,-0.0328 -0.0134,-0.045 z m -1.59422,0.0786 c 0.0185,4.9e-4 0.0417,0.004 0.0693,0.0119 0.0184,0.005 0.0386,0.0118 0.0605,0.0207 0.0876,0.0354 0.19254,0.0947 0.29869,0.14469 0.0528,0.025 0.10526,0.0486 0.15813,0.0651 0.0529,0.0165 0.10612,0.0257 0.16019,0.0227 0.0252,-8e-5 0.05,-0.002 0.0749,-0.005 -0.0249,0.003 -0.0498,0.005 -0.0749,0.005 -0.0541,0.003 -0.10733,-0.007 -0.16019,-0.0233 -0.0529,-0.0165 -0.10535,-0.0397 -0.15813,-0.0646 -0.10615,-0.05 -0.21109,-0.10929 -0.29869,-0.14469 -0.0219,-0.009 -0.0421,-0.0161 -0.0605,-0.0212 -0.0459,-0.0127 -0.0803,-0.0144 -0.0997,-0.009 0.008,-0.002 0.0182,-0.003 0.0305,-0.003 z m -0.0357,0.005 c -0.002,7e-4 -0.003,0.002 -0.005,0.003 -0.001,8.4e-4 -0.003,0.002 -0.004,0.003 0.001,-0.001 0.003,-0.002 0.004,-0.003 0.001,-8.4e-4 0.003,-0.001 0.005,-0.002 z"
       transform="translate(-116.27507,-65.455088)" />
    <path
       d="m 153.9046,118.91624 c -0.15379,0.004 -0.30897,0.0154 -0.4655,0.0331 -0.55032,0.0621 -1.09863,0.17188 -1.63355,0.32437 -1.60476,0.45745 -3.0905,1.2983 -4.16045,2.38361 -0.89162,0.90432 -1.3587,2.02954 -1.38836,3.34428 -0.0245,1.08632 0.23804,2.31692 0.80295,3.76137 -0.75731,0.11936 -1.37564,0.24323 -1.86047,0.62799 -0.15166,0.11977 -0.75064,0.99093 -0.24243,1.6334 0.43998,0.55635 1.36332,0.80447 1.8783,0.80295 2.50757,-0.008 4.72261,-0.17967 6.77204,-0.527 1.6951,-0.28732 3.69696,-0.6917 5.691,-1.5121 0.34096,-0.14027 0.69602,-0.29481 1.05091,-0.46751 1.38533,-0.67413 2.76958,-1.62664 3.31938,-3.10461 0.29926,-0.80453 0.11418,-1.69156 -0.48318,-2.3149 -0.45286,-0.47245 -1.08225,-0.82832 -1.82018,-1.02954 -0.64062,-0.17456 -1.34712,-0.22721 -1.99068,-0.14835 -0.64626,-1.27062 -1.49963,-2.28408 -2.46832,-2.93137 -0.91727,-0.61296 -1.92497,-0.90652 -3.00146,-0.87564 z m 0.71162,1.07796 c 0.16946,0.008 0.32988,0.0577 0.39525,0.0805 1.17923,0.41162 2.20664,1.28294 2.81852,2.39054 0.12121,0.21936 0.10495,0.47269 0.0204,0.58156 -0.0993,0.12792 -0.19133,0.18642 -0.28948,0.18402 -0.19315,-0.005 -0.40819,-0.25564 -0.70594,-0.60294 -0.46283,-0.53966 -1.16235,-1.3552 -2.37407,-1.93933 -0.17365,-0.0837 -0.43528,-0.34577 -0.31439,-0.52023 0.10172,-0.14696 0.28021,-0.18179 0.44967,-0.17417 z m 4.87777,2.88386 c 1.70792,-0.0481 3.26076,0.65999 3.75904,1.7836 0.50834,1.14652 -0.3222,2.96838 -3.41545,4.05698 -2.25713,0.81321 -4.6683,0.81804 -7.03078,0.68288 -2.17188,0.0101 -5.92497,-0.69589 -7.73148,0.65521 -0.0985,0.0942 -0.0491,0.14856 -0.17787,0.1472 0.11772,-0.38206 0.25044,-0.67448 0.52684,-0.80441 2.98638,-1.12476 6.791,-0.0187 11.00274,-0.37864 4.70464,-0.42826 6.83554,-2.52976 6.58465,-3.9257 -0.33856,-1.88363 -3.43937,-1.99085 -3.44928,-2.00282 -0.0436,-0.0527 -0.0707,-0.15323 -0.0684,-0.2143 z m 0.28179,1.10779 0.73483,1.61004 c -0.90579,1.4439 -3.17491,2.68027 -5.02564,3.26649 -1.03269,0.0227 -2.19523,-0.0437 -3.31954,-0.10776 -1.54562,-0.0977 -3.09533,-0.17186 -4.64042,-0.0353 -0.0932,0.0111 -0.18947,0.0223 -0.22383,-0.037 -0.0265,-0.0457 -0.0573,-0.16832 -0.0403,-0.20093 1.43598,-0.27707 3.95249,-0.52107 7.09281,-1.1586 2.68368,-0.57441 4.56435,-2.15376 5.42228,-3.3369 z m 4.92311,2.75903 c -0.0971,0.003 -0.20814,0.0198 -0.33652,0.0533 l -0.47365,0.12391 c -2.06402,3.32071 -7.92193,4.91737 -15.76829,5.35725 l -0.0924,10.3254 c -0.13555,15.16647 -0.031,15.98481 -0.16787,16.5085 -0.48014,1.83645 -1.39726,2.74983 -2.98132,2.96902 -0.89411,0.12372 -0.92285,0.15681 -0.92285,1.06259 0,0.40741 0.0367,0.8093 0.0815,0.89303 0.08,0.1494 0.28543,0.1522 10.96801,0.1522 10.27131,0 10.89293,-0.008 11.00259,-0.13775 0.12059,-0.14291 1.32641,-4.41304 1.38405,-4.90128 0.025,-0.21174 -0.008,-0.31378 -0.13929,-0.4329 -0.16084,-0.14569 -0.31169,-0.1577 -2.3089,-0.18417 -0.76383,-0.009 -1.29948,-0.0123 -1.74224,-0.0136 -0.0336,0.30989 -0.1771,0.56953 -0.3791,0.74299 -0.23179,0.19905 -0.52777,0.29132 -0.82,0.29132 -0.29224,0 -0.58806,-0.0923 -0.81986,-0.29132 -0.20218,-0.17363 -0.34536,-0.43387 -0.37864,-0.74421 -0.50949,-0.002 -1.14753,-0.006 -2.01112,-0.0142 -2.00294,-0.0189 -2.05293,-0.0254 -2.34918,-0.20954 -0.16648,-0.10349 -0.40591,-0.3307 -0.53206,-0.50485 -0.49066,-0.67734 -0.50555,0.12223 -0.46366,-13.90244 0.0217,-7.26127 0.003,-7.1162 0.15665,-7.36099 0.28084,-0.44531 0.56368,-0.55036 1.48229,-0.55067 0.79363,-3e-4 0.81827,0.005 1.04292,0.22214 0.20601,0.19919 0.23013,0.2731 0.23013,0.70609 0,0.57218 0.13948,0.8217 0.4592,0.8217 0.11778,0 0.29288,0.0534 0.38909,0.11853 0.14625,0.099 0.17495,0.19006 0.17495,0.55543 0,0.24037 0.0424,0.47815 0.0944,0.52837 0.13486,0.1304 4.63497,0.1304 4.76984,0 0.0536,-0.0518 0.0945,-0.30008 0.0945,-0.57418 0,-0.41122 0.0287,-0.51059 0.19324,-0.66966 0.10625,-0.10273 0.26384,-0.18679 0.35035,-0.18679 0.25756,0 0.53504,-0.15645 0.62831,-0.35434 0.0582,-0.1235 0.0875,-0.99448 0.0875,-2.60761 0,-2.63987 0.0162,-2.54818 -0.46289,-2.6408 -0.42184,-0.0815 -0.48164,-0.24846 -0.48164,-1.34485 v -0.9782 l 0.22737,-0.20338 c 0.12504,-0.11188 0.33756,-0.29373 0.47227,-0.40401 0.23808,-0.19491 0.24489,-0.21824 0.24458,-0.83707 -2.4e-4,-0.49602 -0.0341,-0.68995 -0.15327,-0.87889 -0.17044,-0.27024 -0.32843,-0.51707 -0.74898,-0.50408 z m -4.44271,12.51778 c -0.43881,0.008 -0.73744,0.0302 -0.75374,0.0741 -0.0652,0.17549 1.1543,4.27497 1.26767,4.30911 0.11336,0.0342 2.45079,0 2.45079,0 l 0.92962,-4.30911 c 0,0 -2.57789,-0.0988 -3.89434,-0.0741 z"
       style="display:inline;fill:#000000;stroke-width:0.0787107"
       id="path1"
       transform="translate(-116.27507,-65.455088)" />
    <path
       style="fill:#ff7f2a;fill-rule:evenodd;stroke-width:0.0854091;stroke-linejoin:round;paint-order:markers fill stroke"
       d="m -155.8909,149.70759 c -0.20293,0 -0.25828,0.043 -0.30132,0.23982 -0.14144,0.68259 -0.28288,1.36519 -0.42431,2.04778 -0.11684,0.57189 -0.23368,1.14994 -0.35667,1.72799 -0.0369,0.18449 -0.006,0.22753 0.17833,0.23983 0.27673,0.0246 0.5473,0.0246 0.82403,0 0.0984,-0.006 0.15374,-0.0553 0.17833,-0.14758 0.0246,-0.12914 0.0492,-0.26443 0.0738,-0.39357 0.0184,-0.0861 0.0676,-0.14144 0.16603,-0.13529 0.13529,0 0.27058,0 0.39972,0 0.0984,0 0.14758,0.043 0.16603,0.13529 0.0246,0.12914 0.0492,0.25213 0.0799,0.38127 0.0184,0.0861 0.0615,0.15373 0.16603,0.15988 0.30747,0 0.6088,0 0.91627,0 0.0922,0 0.13529,-0.0553 0.13529,-0.14758 0,-0.0492 0,-0.0984 -0.006,-0.14759 -0.21523,-1.24219 -0.43046,-2.48438 -0.64569,-3.72657 -0.0308,-0.16604 -0.11069,-0.23368 -0.28288,-0.23368 -0.21523,-0.006 -0.43661,0 -0.65184,0 -0.20293,0 -0.41202,0 -0.61495,0 z m 0.77483,2.55202 c 0.0123,0.0738 -0.0184,0.11069 -0.0922,0.10454 -0.0738,0 -0.15373,0 -0.22753,0 -0.0984,0.0123 -0.12299,-0.0369 -0.10454,-0.12914 0.0676,-0.33207 0.13529,-0.66414 0.20908,-1.00236 0.006,-0.0185 0.0123,-0.0308 0.0308,-0.0738 0.0615,0.38741 0.12299,0.74408 0.18448,1.10075 z m 1.79779,-2.57047 c -0.0553,0 -0.11684,0.006 -0.17833,0.0123 -0.12299,0.006 -0.17834,0.0799 -0.17834,0.20293 0,0.28287 0,0.5719 0,0.85477 0,0.12299 0.0554,0.19679 0.18449,0.19679 0.17833,0.006 0.35666,0 0.535,0 0.11684,0 0.17833,0.0553 0.17833,0.17218 0,0.15374 0,0.31362 -0.006,0.47351 -0.0246,0.71949 -0.0492,1.43897 -0.043,2.15846 0,0.15989 0.0615,0.21523 0.21523,0.22138 0.30132,0 0.60265,0 0.89782,0 0.15374,-0.006 0.20908,-0.0553 0.20908,-0.20908 -0.006,-0.23368 -0.0185,-0.46121 -0.0246,-0.69489 0,-0.60265 0,-1.20529 0,-1.80794 0,-0.0492 0,-0.0984 0.0123,-0.14759 0.0123,-0.11069 0.0738,-0.17218 0.18449,-0.16603 0.14143,0 0.28287,0 0.42431,0 0.19063,0 0.23368,-0.0369 0.23983,-0.23368 0.006,-0.24598 0.006,-0.49196 0.006,-0.73794 0,-0.24598 -0.0492,-0.29517 -0.29518,-0.29517 -0.39971,0 -0.79328,0 -1.19299,0 -0.38742,0 -0.77483,0 -1.1684,0 z m 3.27981,-0.006 c -0.17219,0 -0.23983,0.0615 -0.24598,0.23983 0,0.13529 0.0123,0.26442 0.0123,0.39971 0.006,1.12535 0.0185,2.2507 0.0246,3.37606 0,0.22753 0.0492,0.27672 0.28287,0.28287 0.19063,0 0.38127,-0.0185 0.5719,-0.0123 0.42431,0.0185 0.84863,0.0185 1.26679,0 0.19678,-0.0123 0.25213,-0.0615 0.25213,-0.25828 0.006,-0.23368 0.006,-0.4735 0,-0.70718 0,-0.15989 -0.0492,-0.20909 -0.22138,-0.20909 -0.25828,0 -0.51656,0 -0.77484,0 -0.19063,0 -0.21523,-0.0184 -0.22753,-0.20908 0,-0.0307 0,-0.0615 0,-0.0922 0.006,-0.14144 0.0492,-0.18448 0.19064,-0.18448 0.19063,0 0.37512,0 0.56575,0 0.14144,0 0.20293,-0.0492 0.20908,-0.19064 0.0123,-0.19678 0.0123,-0.39356 0.006,-0.59034 -0.006,-0.13529 -0.0676,-0.18449 -0.21523,-0.19064 -0.16604,0 -0.33207,0 -0.49811,0 -0.23368,0 -0.25828,-0.0246 -0.25828,-0.25827 0,-0.0185 0,-0.0431 0,-0.0615 0.0185,-0.20293 0.0492,-0.23983 0.25828,-0.23368 0.19064,0 0.38127,0.0123 0.5719,0.0123 0.19678,-0.006 0.24598,-0.0615 0.24598,-0.25213 0,-0.20293 0,-0.40586 0,-0.60264 0.006,-0.20294 -0.0492,-0.25828 -0.25828,-0.25828 -0.29517,0 -0.5842,0 -0.87937,0 -0.28902,0 -0.5842,0 -0.87937,0 z m 3.80251,4.29847 c 0.33207,0 0.66414,0.006 0.99621,-0.006 0.15989,0 0.20294,-0.0553 0.20294,-0.20908 0,-0.28288 0,-0.56575 0,-0.84863 -0.006,-0.19678 -0.0615,-0.24597 -0.25828,-0.24597 -0.20908,0 -0.42431,0 -0.63339,0 -0.0984,0.006 -0.15374,-0.0369 -0.15989,-0.14144 0,-0.12914 -0.0185,-0.25828 -0.0185,-0.38742 -0.006,-0.74408 0.006,-1.48817 0.0246,-2.23225 0.006,-0.17219 -0.0369,-0.21523 -0.20908,-0.22138 -0.27058,0 -0.54116,0 -0.80558,0 -0.19064,0.006 -0.24598,0.0615 -0.24598,0.24598 0,0.28287 0,0.56575 0.006,0.84862 0,0.51041 0.0185,1.02081 0.0123,1.52507 -0.0123,0.4858 -0.0123,0.97161 -0.0185,1.45742 0,0.15989 0.0615,0.20908 0.22753,0.20908 0.28902,0.006 0.5842,0.006 0.87937,0.006 z m 2.89239,-3.25921 c 0.0185,-0.27673 0.0246,-0.55345 0.0308,-0.83018 0,-0.15374 -0.0492,-0.20293 -0.20293,-0.20293 -0.29518,0 -0.59035,0 -0.89167,0.006 -0.19064,0 -0.23983,0.0615 -0.23983,0.25827 0.0123,0.658 0.006,1.32214 0.0246,1.98013 0.0184,0.59035 0,1.1807 0.006,1.77104 0,0.21524 0.0554,0.27058 0.27058,0.27673 0.22753,0 0.46121,0 0.68874,-0.006 0.27058,0 0.33207,-0.0553 0.31362,-0.31977 -0.0307,-0.46121 -0.006,-0.92242 -0.0185,-1.32828 0,-0.5719 -0.006,-1.08846 0.0185,-1.60501 z m 0.87538,-1.03926 c -0.17219,0 -0.23983,0.0615 -0.24598,0.23983 0,0.13529 0.0123,0.26442 0.0123,0.39971 0.006,1.12535 0.0185,2.2507 0.0246,3.37606 0,0.22753 0.0492,0.27672 0.28287,0.28287 0.19064,0 0.38127,-0.0185 0.5719,-0.0123 0.42431,0.0185 0.84863,0.0185 1.26679,0 0.19678,-0.0123 0.25213,-0.0615 0.25213,-0.25828 0.006,-0.23368 0.006,-0.4735 0,-0.70718 0,-0.15989 -0.0492,-0.20909 -0.22138,-0.20909 -0.25828,0 -0.51656,0 -0.77483,0 -0.19064,0 -0.21523,-0.0184 -0.22753,-0.20908 0,-0.0307 0,-0.0615 0,-0.0922 0.006,-0.14144 0.0492,-0.18448 0.19063,-0.18448 0.19063,0 0.37512,0 0.56575,0 0.14144,0 0.20293,-0.0492 0.20908,-0.19064 0.0123,-0.19678 0.0123,-0.39356 0.006,-0.59034 -0.006,-0.13529 -0.0676,-0.18449 -0.21523,-0.19064 -0.16604,0 -0.33207,0 -0.49811,0 -0.23368,0 -0.25827,-0.0246 -0.25827,-0.25827 0,-0.0185 0,-0.0431 0,-0.0615 0.0184,-0.20293 0.0492,-0.23983 0.25827,-0.23368 0.19064,0 0.38127,0.0123 0.5719,0.0123 0.19679,-0.006 0.24598,-0.0615 0.24598,-0.25213 0,-0.20293 0,-0.40586 0,-0.60264 0.006,-0.20294 -0.0492,-0.25828 -0.25828,-0.25828 -0.29517,0 -0.58419,0 -0.87937,0 -0.28902,0 -0.5842,0 -0.87937,0 z m 2.71406,2.15846 c 0,0.0185 0,0.0307 0,0.0492 0,0.6088 0,1.22375 0,1.83254 0,0.18449 0.0676,0.25213 0.25213,0.25828 0.24598,0 0.49195,0 0.73178,0 0.16604,-0.006 0.22753,-0.0676 0.23983,-0.22753 0,-0.0369 0,-0.0799 0,-0.12299 0,-0.30747 0,-0.61494 0,-0.92242 0,-0.0369 -0.006,-0.0861 0.0369,-0.0984 0.0492,-0.0185 0.0861,0.006 0.11684,0.0308 0.0492,0.0492 0.0676,0.11069 0.0861,0.17218 0.10454,0.31978 0.20908,0.63955 0.30747,0.95932 0.0369,0.11684 0.10454,0.18448 0.22753,0.19063 0.29518,0.0185 0.5965,0.0185 0.89168,0 0.19063,-0.0123 0.22753,-0.0799 0.15988,-0.25213 -0.16603,-0.43046 -0.33207,-0.86092 -0.50425,-1.28523 -0.043,-0.10454 -0.0308,-0.17834 0.0369,-0.25828 0.0676,-0.0676 0.13529,-0.12914 0.19064,-0.20908 0.25212,-0.34437 0.30747,-0.73794 0.27057,-1.14995 -0.0676,-0.70104 -0.49195,-1.03311 -1.1684,-1.0946 -0.52885,-0.043 -1.06385,-0.0185 -1.59885,-0.0185 -0.24598,0 -0.29518,0.0492 -0.29518,0.30132 0,0.61495 0,1.22989 0,1.84484 0.006,0 0.0123,0 0.0185,0 z m 1.22374,-1.06386 c 0,-0.0492 0.006,-0.0799 0.0615,-0.0984 0.27057,-0.0799 0.50425,0.0861 0.51655,0.36897 0.0246,0.35052 -0.13529,0.51655 -0.46736,0.51655 -0.0799,0 -0.11684,-0.0307 -0.11069,-0.11069 0,-0.11069 0,-0.22138 0,-0.33207 0,-0.11684 0,-0.23368 0,-0.34437 z"
       id="text89"
       transform="rotate(-90,-90.865078,25.409991)"
       aria-label="ATELIER" />
    <g
       id="layer1"
       transform="translate(-116.27507,-65.455088)"
       style="display:inline" />
    <g
       id="layer3"
       style="display:inline" />
  </g>

  </svg>
</svg>
