<?xml version="1.0" encoding="UTF-8"?>
<!-- Icone de l'atelier : le chapeau du Verdier gravant au laser :
     cone de faisceau convergent vers le point focal, etincelle sur
     la surface. Formes simples : lisible de 64 a 16 px, compatible
     QtSvg [FreeCAD]. -->
<svg xmlns="http://www.w3.org/2000/svg" viewBox="0 0 64 64">
<path d="M 19,21 A 13,14 0 0 1 45,21 Z" fill="#2f3540"/><rect x="20.2" y="15.8" width="23.6" height="5.2" fill="#ff8a00"/><ellipse cx="32" cy="21" rx="17.5" ry="4.6" fill="#2f3540"/><polygon points="25,25.5 39,25.5 32.8,49.5 31.2,49.5" fill="#ff8a00" opacity="0.4"/><polygon points="29.6,25.5 34.4,25.5 32.5,49.5 31.5,49.5" fill="#ff8a00"/><g stroke="#ff8a00" stroke-width="2.6" stroke-linecap="round"><line x1="34.9" y1="49.8" x2="38.9" y2="47.5"/><line x1="32.0" y1="48.1" x2="32.0" y2="43.5"/><line x1="29.1" y1="49.8" x2="25.1" y2="47.5"/><line x1="29.1" y1="53.2" x2="25.1" y2="55.5"/><line x1="34.9" y1="53.2" x2="38.9" y2="55.5"/></g><circle cx="32" cy="51.5" r="2.5" fill="#ff8a00"/><line x1="15" y1="57.5" x2="49" y2="57.5" stroke="#2f3540" stroke-width="3.4" stroke-linecap="round"/></svg>
